<svg width="70" height="16" viewBox="0 0 70 16" fill="none" xmlns="http://www.w3.org/2000/svg">
<rect x="57.8862" y="1.86694" width="15.7174" height="3" transform="rotate(45 57.8862 1.86694)" fill="#C4C4C4"/>
<rect x="56" y="13.1833" width="15.7174" height="3" transform="rotate(-45 56 13.1833)" fill="#C4C4C4"/>
<path d="M5.447 13.208C4.485 13.208 3.61833 13.0087 2.847 12.61C2.07567 12.2027 1.469 11.6393 1.027 10.92C0.593667 10.192 0.377 9.36867 0.377 8.45C0.377 7.53133 0.593667 6.71233 1.027 5.993C1.469 5.265 2.07567 4.70167 2.847 4.303C3.61833 3.89567 4.485 3.692 5.447 3.692C6.331 3.692 7.11967 3.848 7.813 4.16C8.50633 4.472 9.07833 4.92267 9.529 5.512L7.592 7.241C7.02867 6.53033 6.36567 6.175 5.603 6.175C4.96167 6.175 4.446 6.383 4.056 6.799C3.666 7.20633 3.471 7.75667 3.471 8.45C3.471 9.14333 3.666 9.698 4.056 10.114C4.446 10.5213 4.96167 10.725 5.603 10.725C6.36567 10.725 7.02867 10.3697 7.592 9.659L9.529 11.388C9.07833 11.9773 8.50633 12.428 7.813 12.74C7.11967 13.052 6.331 13.208 5.447 13.208ZM10.4148 3.9H13.4828V10.621H17.5908V13H10.4148V3.9ZM23.0823 13.208C22.103 13.208 21.2233 13.0043 20.4433 12.597C19.6633 12.1897 19.0523 11.6263 18.6103 10.907C18.1683 10.179 17.9473 9.36 17.9473 8.45C17.9473 7.54 18.1683 6.72533 18.6103 6.006C19.0523 5.278 19.6633 4.71033 20.4433 4.303C21.2233 3.89567 22.103 3.692 23.0823 3.692C24.0616 3.692 24.9413 3.89567 25.7213 4.303C26.5013 4.71033 27.1123 5.278 27.5543 6.006C27.9963 6.72533 28.2173 7.54 28.2173 8.45C28.2173 9.36 27.9963 10.179 27.5543 10.907C27.1123 11.6263 26.5013 12.1897 25.7213 12.597C24.9413 13.0043 24.0616 13.208 23.0823 13.208ZM23.0823 10.725C23.4636 10.725 23.806 10.634 24.1093 10.452C24.4213 10.2613 24.6683 9.997 24.8503 9.659C25.0323 9.31233 25.1233 8.90933 25.1233 8.45C25.1233 7.99067 25.0323 7.592 24.8503 7.254C24.6683 6.90733 24.4213 6.643 24.1093 6.461C23.806 6.27033 23.4636 6.175 23.0823 6.175C22.701 6.175 22.3543 6.27033 22.0423 6.461C21.739 6.643 21.4963 6.90733 21.3143 7.254C21.1323 7.592 21.0413 7.99067 21.0413 8.45C21.0413 8.90933 21.1323 9.31233 21.3143 9.659C21.4963 9.997 21.739 10.2613 22.0423 10.452C22.3543 10.634 22.701 10.725 23.0823 10.725ZM32.7238 13.208C31.9698 13.208 31.2332 13.1257 30.5138 12.961C29.8032 12.7877 29.2182 12.558 28.7588 12.272L29.7468 10.036C30.1802 10.2873 30.6655 10.491 31.2028 10.647C31.7402 10.7943 32.2558 10.868 32.7498 10.868C33.1745 10.868 33.4778 10.829 33.6598 10.751C33.8418 10.6643 33.9328 10.5387 33.9328 10.374C33.9328 10.1833 33.8115 10.0403 33.5688 9.945C33.3348 9.84967 32.9448 9.74567 32.3988 9.633C31.6968 9.48567 31.1118 9.32967 30.6438 9.165C30.1758 8.99167 29.7685 8.71433 29.4218 8.333C29.0752 7.943 28.9018 7.41867 28.9018 6.76C28.9018 6.188 29.0622 5.668 29.3828 5.2C29.7035 4.732 30.1802 4.36367 30.8128 4.095C31.4542 3.82633 32.2298 3.692 33.1398 3.692C33.7638 3.692 34.3748 3.76133 34.9728 3.9C35.5795 4.03 36.1125 4.225 36.5718 4.485L35.6488 6.708C34.7562 6.25733 33.9112 6.032 33.1138 6.032C32.3252 6.032 31.9308 6.22267 31.9308 6.604C31.9308 6.786 32.0478 6.92467 32.2818 7.02C32.5158 7.10667 32.9015 7.202 33.4388 7.306C34.1322 7.436 34.7172 7.58767 35.1938 7.761C35.6705 7.92567 36.0822 8.19867 36.4288 8.58C36.7842 8.96133 36.9618 9.48133 36.9618 10.14C36.9618 10.712 36.8015 11.232 36.4808 11.7C36.1602 12.1593 35.6792 12.5277 35.0378 12.805C34.4052 13.0737 33.6338 13.208 32.7238 13.208ZM45.4408 10.686V13H37.8748V3.9H45.2718V6.214H40.8908V7.28H44.7388V9.49H40.8908V10.686H45.4408Z" fill="#C4C4C4"/>
</svg>
