<svg width="24" height="14" viewBox="0 0 24 14" fill="none" xmlns="http://www.w3.org/2000/svg">
<path d="M10.8048 12.9257L10.8047 12.9257L1.34524 3.46606C0.684938 2.80575 0.684899 1.73514 1.34524 1.07504L10.8048 12.9257ZM10.8048 12.9257C11.1346 13.2554 11.5675 13.4206 11.9999 13.4206C12.4322 13.4206 12.865 13.2558 13.1951 12.926L13.1951 12.926L22.6544 3.46638C23.3151 2.80607 23.3151 1.73545 22.6545 1.07534C21.9944 0.415236 20.9241 0.415273 20.2638 1.07531L20.2638 1.07534L11.9999 9.33935L3.73611 1.07505L3.73609 1.07502C3.07574 0.41499 2.00536 0.414945 1.34527 1.07502L10.8048 12.9257Z" fill="white" stroke="white" stroke-width="0.3"/>
</svg>
