<svg width="97" height="60" viewBox="0 0 97 60" fill="none" xmlns="http://www.w3.org/2000/svg">
<path d="M2.68365 19.5401V4.66001H7.50793C9.1295 4.66001 10.339 5.00277 11.1363 5.6883C11.9335 6.3604 12.3322 7.33493 12.3322 8.61194V8.89418C12.3322 9.6604 12.1835 10.2921 11.8863 10.7895C11.589 11.2733 11.1768 11.6497 10.6498 11.9186C11.3525 12.1605 11.9066 12.5504 12.3119 13.088C12.7308 13.6123 12.9403 14.3247 12.9403 15.2253V15.5076C12.9403 16.798 12.5416 17.7927 11.7443 18.4917C10.9471 19.1906 9.73767 19.5401 8.11603 19.5401H2.68365ZM7.85252 6.394H4.67013V11.2129H7.85252C8.69031 11.2129 9.30524 10.9911 9.69707 10.5475C10.1025 10.0905 10.3052 9.51251 10.3052 8.81351C10.3052 8.10111 10.1025 7.52311 9.69707 7.07953C9.30524 6.62251 8.69031 6.394 7.85252 6.394ZM8.3998 12.8663H4.67013V17.8061H8.3998C9.19708 17.8061 9.81192 17.5843 10.2443 17.1408C10.6903 16.6837 10.9133 16.0789 10.9133 15.3261C10.9133 14.5599 10.6971 13.9618 10.2646 13.5316C9.83222 13.088 9.21061 12.8663 8.3998 12.8663ZM16.461 19.4595V4.66001H21.3055C22.3865 4.66001 23.3325 4.82131 24.1433 5.14391C24.9541 5.46651 25.5825 5.96386 26.0285 6.63595C26.4743 7.30804 26.6973 8.17508 26.6973 9.23691V9.55953C26.6973 10.7155 26.427 11.643 25.8865 12.342C25.3595 13.0275 24.6365 13.5182 23.7176 13.8139L28.0149 19.4595H25.6027L21.6096 14.1365C21.5149 14.1365 21.4136 14.1365 21.3055 14.1365H18.4475V19.4595H16.461ZM21.6704 6.394H18.4475V12.3824H21.6704C22.5893 12.3824 23.319 12.1 23.8595 11.5355C24.4001 10.9709 24.6703 10.2585 24.6703 9.39826C24.6703 8.52453 24.4001 7.80539 23.8595 7.24083C23.319 6.67628 22.5893 6.394 21.6704 6.394ZM29.0729 19.4595L34.4039 4.74066H37.7687L43.2619 19.4595H41.2147L39.593 15.064H32.6404L31.0593 19.4595H29.0729ZM33.2688 13.2897H38.9242L36.4309 6.51498H35.6809L33.2688 13.2897ZM45.9752 19.4595V4.74066H49.2185L56.7387 17.6852H56.9819V4.74066H58.8872V19.4595H55.6035L48.0833 6.51498H47.8401V19.4595H45.9752ZM63.1771 19.5401V4.66001H68.2446C69.5824 4.66001 70.7446 4.86835 71.731 5.28505C72.7175 5.6883 73.5351 6.23942 74.1837 6.93839C74.8459 7.62393 75.3391 8.39683 75.6634 9.2571C75.9878 10.1039 76.1499 10.9709 76.1499 11.8581V12.3017C76.1499 13.162 75.9878 14.0222 75.6634 14.8825C75.3391 15.7428 74.8459 16.5225 74.1837 17.2214C73.5351 17.9204 72.7175 18.4849 71.731 18.9151C70.7446 19.3318 69.5824 19.5401 68.2446 19.5401H63.1771ZM68.4473 6.47465H65.1636V17.7255H68.4473C69.6365 17.7255 70.6499 17.4768 71.4878 16.9794C72.3391 16.4821 72.9878 15.81 73.4337 14.9632C73.8931 14.1029 74.1229 13.1418 74.1229 12.0799C74.1229 10.9776 73.8931 10.0099 73.4337 9.17643C72.9878 8.32962 72.3391 7.67098 71.4878 7.20051C70.6499 6.7166 69.6365 6.47465 68.4473 6.47465ZM84.0151 19.8224C82.785 19.8224 81.7376 19.6207 80.8732 19.2175C80.0083 18.8142 79.3461 18.2564 78.8867 17.544C78.4272 16.8316 78.1975 16.0251 78.1975 15.1245H80.184C80.184 15.568 80.2988 16.0116 80.5285 16.4552C80.7718 16.8988 81.1704 17.2684 81.7245 17.5642C82.2919 17.8599 83.0556 18.0077 84.0151 18.0077C84.9068 18.0077 85.6363 17.8801 86.2045 17.6247C86.7718 17.3558 87.1908 17.0131 87.4606 16.5963C87.7312 16.1662 87.8665 15.7025 87.8665 15.2051C87.8665 14.6003 87.6024 14.1029 87.0759 13.7131C86.5485 13.3099 85.7782 13.0612 84.765 12.967L83.1233 12.8259C81.8126 12.7184 80.7651 12.3152 79.9812 11.6162C79.1975 10.9172 78.8056 9.9964 78.8056 8.85389C78.8056 7.95325 79.0218 7.1669 79.4543 6.49482C79.9002 5.82273 80.5151 5.29849 81.2988 4.92212C82.0824 4.5323 82.9945 4.3374 84.0354 4.3374C85.0625 4.3374 85.9673 4.52558 86.7514 4.90196C87.5356 5.27833 88.1437 5.80928 88.5757 6.49482C89.0216 7.1669 89.2449 7.97342 89.2449 8.91437H87.2584C87.2584 8.44386 87.1435 8.0003 86.9136 7.5836C86.6976 7.1669 86.3528 6.82414 85.8801 6.5553C85.4065 6.28647 84.7919 6.15205 84.0354 6.15205C83.3059 6.15205 82.6978 6.27975 82.2112 6.53514C81.7376 6.79053 81.3799 7.12658 81.1367 7.54328C80.9069 7.94653 80.792 8.38337 80.792 8.85389C80.792 9.39153 81.0015 9.8687 81.4204 10.2854C81.8395 10.7021 82.4606 10.9441 83.2855 11.0113L84.9272 11.1524C86.4409 11.2868 87.6367 11.7036 88.5145 12.4025C89.4071 13.088 89.853 14.0222 89.853 15.2051C89.853 16.1057 89.6093 16.9055 89.1235 17.6045C88.6368 18.3035 87.9537 18.8479 87.0759 19.2377C86.1971 19.6275 85.1774 19.8224 84.0151 19.8224Z" fill="#FF7C1D"/>
<path d="M93.1819 8.22209C93.5373 8.22209 93.8609 8.13639 94.1519 7.96494C94.4462 7.7907 94.6801 7.55742 94.8554 7.26513C95.0306 6.97284 95.1187 6.64823 95.1187 6.2913C95.1187 5.93436 95.0306 5.60975 94.8554 5.31746C94.6801 5.02236 94.4462 4.78768 94.1519 4.61343C93.8609 4.43918 93.5373 4.35205 93.1819 4.35205C92.8257 4.35205 92.5005 4.44058 92.207 4.61765C91.9128 4.7947 91.678 5.03079 91.5036 5.32589C91.3283 5.61818 91.2403 5.93998 91.2403 6.2913C91.2403 6.64261 91.3283 6.96581 91.5036 7.26092C91.678 7.55321 91.9128 7.78648 92.207 7.96073C92.5005 8.13501 92.8257 8.22209 93.1819 8.22209ZM93.177 7.93122C92.8779 7.93122 92.6024 7.85815 92.3505 7.712C92.1019 7.56305 91.903 7.3649 91.753 7.11758C91.6038 6.86744 91.5289 6.59202 91.5289 6.2913C91.5289 5.99057 91.6022 5.71655 91.7489 5.46923C91.8989 5.21909 92.0978 5.01955 92.3464 4.87059C92.5983 4.71882 92.8763 4.64294 93.1819 4.64294C93.4835 4.64294 93.759 4.71742 94.0077 4.86637C94.2595 5.01533 94.46 5.21487 94.61 5.46501C94.7592 5.71233 94.8342 5.98776 94.8342 6.2913C94.8342 6.59483 94.7592 6.87166 94.61 7.1218C94.46 7.36912 94.2595 7.56585 94.0077 7.712C93.7566 7.85815 93.4794 7.93122 93.177 7.93122ZM92.6048 7.46327H92.851V6.45992H92.9227L93.6898 7.46327H94.0036L93.2072 6.44307C93.3963 6.4262 93.5471 6.35734 93.6604 6.23649C93.7762 6.11564 93.834 5.96106 93.834 5.77276C93.834 5.56478 93.7664 5.40318 93.6311 5.28795C93.4982 5.17272 93.3189 5.1151 93.0923 5.1151H92.6048V7.46327ZM92.851 6.26179V5.31746H93.0287C93.1868 5.31746 93.3172 5.3554 93.4191 5.43129C93.5235 5.50716 93.5756 5.62099 93.5756 5.77276C93.5756 5.92733 93.5235 6.04819 93.4191 6.13532C93.3172 6.21963 93.1868 6.26179 93.0287 6.26179H92.851Z" fill="#FF7C1D"/>
<path d="M42.1595 58.8332V26.6301H54.0894L66.2853 52.9658H67.7936L66.9061 53.7594V26.6301H73.7362V58.8332H61.7171L49.5208 32.4963H48.0131L48.9004 31.7027V58.8332" fill="#FF7C1D"/>
<path d="M80.7872 58.8337H88.0597V51.7305H80.7872V58.8337Z" fill="#FF7C1D"/>
<path d="M15.7493 46.2163H23.0221V39.1135H15.7493V46.2163Z" fill="#FF7C1D"/>
<path d="M80.7872 47.9365H88.0597V26.6299H80.7872V47.9365Z" fill="#FF7C1D"/>
<path d="M19.3637 52.9217C20.9009 52.9217 22.2826 52.6571 23.5101 52.1279C24.7371 51.5983 25.7865 50.8628 26.6588 49.9219C27.5305 48.9814 28.1891 47.8926 28.6323 46.6579C29.076 45.4223 29.2977 44.0989 29.2977 42.6873C29.2977 41.1874 29.0684 39.8133 28.6103 38.5625C28.1517 37.3125 27.4862 36.2244 26.6147 35.2984C25.7428 34.3716 24.7002 33.6591 23.4882 33.1587C22.2753 32.6591 20.9009 32.4083 19.3637 32.4083C17.8259 32.4083 16.4508 32.6591 15.2392 33.1587C14.0258 33.6591 12.984 34.3716 12.1127 35.2984C11.2405 36.2244 10.5826 37.3125 10.1396 38.5625C9.695 39.8133 9.47377 41.1874 9.47377 42.6873C9.47377 44.0989 9.695 45.4223 10.1396 46.6579C10.5826 47.8926 11.2405 48.9814 12.1127 49.9219C12.984 50.8628 14.0258 51.5983 15.2392 52.1279C16.4508 52.6571 17.8259 52.9217 19.3637 52.9217ZM19.3637 59.671C16.4366 59.671 13.8863 59.1637 11.7133 58.1496C9.54012 57.1349 7.74421 55.7969 6.3245 54.1353C4.90565 52.4736 3.8483 50.6724 3.15431 48.7303C2.45898 46.7898 2.11182 44.9227 2.11182 43.1284V42.1584C2.11182 40.1585 2.47349 38.1802 3.19836 36.2244C3.92222 34.2689 5.00894 32.4964 6.458 30.908C7.90673 29.3211 9.7104 28.0485 11.8686 27.0928C14.0258 26.1367 16.5257 25.6589 19.3637 25.6589C22.2016 25.6589 24.7002 26.1367 26.8587 27.0928C29.0163 28.0485 30.82 29.3211 32.2691 30.908C33.7177 32.4964 34.8118 34.2689 35.551 36.2244C36.29 38.1802 36.6597 40.1585 36.6597 42.1584V43.1284C36.6597 44.9227 36.3051 46.7898 35.5952 48.7303C34.8859 50.6724 33.8218 52.4736 32.4026 54.1353C30.9831 55.7969 29.1865 57.1349 27.014 58.1496C24.841 59.1637 22.2902 59.671 19.3637 59.671Z" fill="#FF7C1D"/>
</svg>
