<svg width="77" height="24" viewBox="0 0 77 24" fill="none" xmlns="http://www.w3.org/2000/svg">
<rect x="52" width="25" height="4" fill="white"/>
<rect x="52" y="10" width="25" height="4" fill="white"/>
<rect x="52" y="20" width="25" height="4" fill="white"/>
<path d="M8.866 17L8.84 12.853L6.864 16.181H5.512L3.536 12.996V17H0.741V7.9H3.263L6.227 12.749L9.113 7.9H11.635L11.661 17H8.866ZM20.7103 14.686V17H13.1443V7.9H20.5413V10.214H16.1603V11.28H20.0083V13.49H16.1603V14.686H20.7103ZM30.8614 7.9V17H28.3394L24.8814 12.866V17H21.8914V7.9H24.4134L27.8714 12.034V7.9H30.8614ZM36.6946 17.208C35.2993 17.208 34.2116 16.831 33.4316 16.077C32.6516 15.323 32.2616 14.2657 32.2616 12.905V7.9H35.3296V12.814C35.3296 13.4813 35.4466 13.9667 35.6806 14.27C35.9233 14.5733 36.27 14.725 36.7206 14.725C37.1713 14.725 37.5136 14.5733 37.7476 14.27C37.9903 13.9667 38.1116 13.4813 38.1116 12.814V7.9H41.1276V12.905C41.1276 14.2657 40.7376 15.323 39.9576 16.077C39.1776 16.831 38.09 17.208 36.6946 17.208Z"/>
</svg>
