<svg width="43" height="41" viewBox="0 0 43 41" fill="none" xmlns="http://www.w3.org/2000/svg">
<path d="M16.845 8.33296L17.0921 8.28652V8.03445V0.911106V0.566864L16.7515 0.609771C11.8543 1.22674 7.88103 3.59636 4.84517 7.70198C1.80322 11.8158 0.302795 17.6488 0.302795 25.1608V40.3926V40.6963H0.605612H16.7892H17.0921V40.3926V23.8725V23.5688H16.7892H8.78448C8.76704 23.3852 8.74945 23.2265 8.73164 23.0933C8.71014 22.9326 8.68661 22.7943 8.65833 22.6913V22.6904V22.6892V22.688V22.6868V22.6856V22.6844V22.6831V22.6819V22.6807V22.6795V22.6783V22.6771V22.6759V22.6747V22.6734V22.6722V22.671V22.6698V22.6686V22.6674V22.6662V22.6649V22.6637V22.6625V22.6613V22.6601V22.6588V22.6576V22.6564V22.6552V22.654V22.6527V22.6515V22.6503V22.6491V22.6478V22.6466V22.6454V22.6441V22.6429V22.6417V22.6405V22.6392V22.638V22.6368V22.6355V22.6343V22.6331V22.6318V22.6306V22.6294V22.6281V22.6269V22.6256V22.6244V22.6232V22.6219V22.6207V22.6194V22.6182V22.617V22.6157V22.6145V22.6133V22.612V22.6108V22.6095V22.6083V22.607V22.6058V22.6045V22.6033V22.602V22.6008V22.5996V22.5983V22.5971V22.5958V22.5945V22.5933V22.5921V22.5908V22.5895V22.5883V22.587V22.5858V22.5845V22.5833V22.582V22.5808V22.5795V22.5782V22.577V22.5757V22.5745V22.5732V22.572V22.5707V22.5694V22.5682V22.5669V22.5656V22.5644V22.5631V22.5618V22.5606V22.5593V22.558V22.5568V22.5555V22.5542V22.553V22.5517V22.5504V22.5491V22.5479V22.5466V22.5453V22.544V22.5428V22.5415V22.5402V22.5389V22.5377V22.5364V22.5351V22.5338V22.5326V22.5313V22.53V22.5287V22.5274V22.5262V22.5249V22.5236V22.5223V22.521V22.5197V22.5184V22.5172V22.5159V22.5146V22.5133V22.512V22.5107V22.5094V22.5081V22.5069V22.5056V22.5043V22.503V22.5017V22.5004V22.4991V22.4978V22.4965V22.4952V22.4939V22.4926V22.4913V22.49V22.4887V22.4874V22.4861V22.4848V22.4835V22.4822V22.4809V22.4796V22.4783V22.477V22.4757V22.4744V22.4731V22.4718V22.4705V22.4692V22.4679V22.4666V22.4652V22.4639V22.4626V22.4613V22.46V22.4587V22.4574V22.4561V22.4548V22.4534V22.4521V22.4508V22.4495V22.4482V22.4469V22.4455V22.4442V22.4429V22.4416V22.4403V22.4389V22.4376V22.4363V22.435V22.4336V22.4323V22.431V22.4297V22.4284V22.427V22.4257V22.4244V22.423V22.4217V22.4204V22.4191V22.4177V22.4164V22.4151V22.4137V22.4124V22.4111V22.4097V22.4084V22.4071V22.4057V22.4044V22.4031V22.4017V22.4004V22.3991V22.3977V22.3964V22.395V22.3937V22.3923V22.391V22.3897V22.3883V22.387V22.3856V22.3843V22.383V22.3816V22.3803V22.3789V22.3776V22.3762V22.3748V22.3735V22.3722V22.3708V22.3695V22.3681V22.3668V22.3654V22.364V22.3627V22.3613V22.36V22.3586V22.3573V22.3559V22.3546V22.3532V22.3519V22.3505V22.3491V22.3478V22.3464V22.3451V22.3437V22.3423V22.341V22.3396V22.3382V22.3369V22.3355V22.3341V22.3328V22.3314V22.33V22.3287V22.3273V22.3259V22.3246V22.3232V22.3218V22.3205V22.3191V22.3177V22.3163V22.315V22.3136V22.3122V22.3108V22.3095V22.3081V22.3067V22.3053V22.3039V22.3026V22.3012V22.2998V22.2984V22.297V22.2956V22.2943V22.2929V22.2915V22.2901V22.2887V22.2873V22.286V22.2846V22.2832V22.2818V22.2804V22.279V22.2776V22.2762V22.2749V22.2735V22.2721V22.2707V22.2693V22.2679V22.2665V22.2651V22.2637V22.2623V22.2609V22.2595V22.2581V22.2567V22.2553V22.2539V22.2525V22.2511V22.2497V22.2483V22.2469V22.2455V22.2441V22.2427V22.2413V22.2399V22.2385V22.2371V22.2357V22.2343V22.2329V22.2314V22.23V22.2286V22.2272V22.2258V22.2244V22.223V22.2216V22.2202V22.2187V22.2173V22.2159V22.2145V22.2131V22.2117V22.2102V22.2088V22.2074V22.206V22.2046V22.2032V22.2017V22.2003V22.1989V22.1975V22.1961V22.1946V22.1932V22.1918V22.1903V22.1889V22.1875V22.1861V22.1846V22.1832V22.1818V22.1804V22.1789V22.1775V22.1761V22.1746V22.1732V22.1718V22.1703V22.1689V22.1675V22.166V22.1646V22.1632V22.1617V22.1603V22.1589V22.1574V22.156V22.1545V22.1531V22.1517V22.1502V22.1488V22.1473V22.1459V22.1444V22.143V22.1415V22.1401V22.1387V22.1372V22.1357V22.1343V22.1329V22.1314V22.13V22.1285V22.1271V22.1256V22.1242V22.1227V22.1213V22.1198V22.1183V22.1169V22.1154V22.114V22.1125V22.1111V22.1096V22.1081V22.1067V22.1052V22.1038V22.1023V22.1008V22.0994V22.0979V22.0964V22.095V22.0935V22.0921V22.0906V22.0891V22.0877V22.0862V22.0847V22.0833V22.0818V22.0803V22.0789V22.0774V22.0759V22.0745V22.073V22.0715V22.07V22.0686V22.0671V22.0656V22.0641V22.0626V22.0612V22.0597V22.0582V22.0567V22.0553V22.0538C8.65833 19.9664 9.00705 17.8512 9.70702 15.707L9.70735 15.706C11.1032 11.3802 13.492 8.96302 16.845 8.33296ZM42.4431 8.3342L42.6972 8.29272V8.03445V0.911106V0.568055L42.3577 0.609644C36.4952 1.32771 32.2506 4.10762 29.667 8.95154C27.1078 13.6995 25.8319 19.1051 25.8319 25.1608V40.3926V40.6963H26.1347H42.3943H42.6972V40.3926V23.8725V23.5688H42.3943H34.343C34.2767 23.3175 34.2249 23.0819 34.1874 22.8618V22.8607V22.859V22.8572V22.8554V22.8536V22.8518V22.8501V22.8483V22.8465V22.8447V22.8429V22.8412V22.8394V22.8376V22.8358V22.8341V22.8323V22.8305V22.8288V22.827V22.8252V22.8234V22.8217V22.8199V22.8181V22.8163V22.8146V22.8128V22.811V22.8092V22.8074V22.8057V22.8039V22.8021V22.8003V22.7985V22.7968V22.795V22.7932V22.7914V22.7897V22.7879V22.7861V22.7844V22.7826V22.7808V22.779V22.7773V22.7755V22.7737V22.7719V22.7701V22.7684V22.7666V22.7648V22.763V22.7612V22.7595V22.7577V22.7559V22.7541V22.7524V22.7506V22.7488V22.747V22.7453V22.7435V22.7417V22.7399V22.7382V22.7364V22.7346V22.7329V22.7311V22.7293V22.7275V22.7257V22.724V22.7222V22.7204V22.7186V22.7168V22.7151V22.7133V22.7115V22.7097V22.708V22.7062V22.7044V22.7026V22.7009V22.6991V22.6973V22.6955V22.6938V22.692V22.6902V22.6884V22.6867V22.6849V22.6831V22.6813V22.6796V22.6778V22.676V22.6742V22.6724V22.6707V22.6689V22.6671V22.6653V22.6636V22.6618V22.66V22.6582V22.6565V22.6547V22.6529V22.6511V22.6494V22.6476V22.6458V22.644V22.6423V22.6405V22.6387V22.6369V22.6352V22.6334V22.6316V22.6298V22.628V22.6263V22.6245V22.6227V22.6209V22.6192V22.6174V22.6156V22.6138V22.6121V22.6103V22.6085V22.6067V22.605V22.6032V22.6014V22.5996V22.5979V22.5961V22.5943V22.5925V22.5907V22.589V22.5872V22.5854V22.5836V22.5819V22.5801V22.5783V22.5765V22.5748V22.573V22.5712V22.5694V22.5677V22.5659V22.5641V22.5623V22.5606V22.5588V22.557V22.5552V22.5535V22.5517V22.5499V22.5481V22.5463V22.5446V22.5428V22.541V22.5392V22.5375V22.5357V22.5339V22.5321V22.5304V22.5286V22.5268V22.525V22.5233V22.5215V22.5197V22.5179V22.5162V22.5144V22.5126V22.5108V22.5091V22.5073V22.5055V22.5037V22.5019V22.5002V22.4984V22.4966V22.4948V22.4931V22.4913V22.4895V22.4877V22.486V22.4842V22.4824V22.4806V22.4789V22.4771V22.4753V22.4735V22.4718V22.47V22.4682V22.4664V22.4647V22.4629V22.4611V22.4593V22.4575V22.4558V22.454V22.4522V22.4504V22.4487V22.4469V22.4451V22.4433V22.4416V22.4398V22.438V22.4362V22.4345V22.4327V22.4309V22.4291V22.4274V22.4256V22.4238V22.422V22.4203V22.4185V22.4167V22.4149V22.4131V22.4114V22.4096V22.4078V22.406V22.4042V22.4025V22.4007V22.3989V22.3972V22.3954V22.3936V22.3918V22.3901V22.3883V22.3865V22.3847V22.383V22.3812V22.3794V22.3776V22.3758V22.3741V22.3723V22.3705V22.3687V22.367V22.3652V22.3634V22.3616V22.3598V22.3581V22.3563V22.3545V22.3528V22.351V22.3492V22.3474V22.3457V22.3439V22.3421V22.3403V22.3386V22.3368V22.335V22.3332V22.3314V22.3297V22.3279V22.3261V22.3243V22.3225V22.3208V22.319V22.3172V22.3154V22.3137V22.3119V22.3101V22.3084V22.3066V22.3048V22.303V22.3013V22.2995V22.2977V22.2959V22.2942V22.2924V22.2906V22.2888V22.287V22.2853V22.2835V22.2817V22.2799V22.2781V22.2764V22.2746V22.2728V22.271V22.2693V22.2675V22.2657V22.264V22.2622V22.2604V22.2586V22.2569V22.2551V22.2533V22.2515V22.2498V22.248V22.2462V22.2444V22.2426V22.2409V22.2391V22.2373V22.2355V22.2337V22.232V22.2302V22.2284V22.2266V22.2249V22.2231V22.2213V22.2195V22.2178V22.216V22.2142V22.2124V22.2107V22.2089V22.2071V22.2053V22.2036V22.2018V22.2V22.1982V22.1965V22.1947V22.1929V22.1911V22.1893V22.1876V22.1858V22.184V22.1822V22.1805V22.1787V22.1769V22.1751V22.1734V22.1716V22.1698V22.168V22.1663V22.1645V22.1627V22.1609V22.1592V22.1574V22.1556V22.1538V22.1521V22.1503V22.1485V22.1467V22.1449V22.1432V22.1414V22.1396V22.1378V22.1361V22.1343V22.1325V22.1307V22.129V22.1272V22.1254V22.1236V22.1219V22.1201V22.1183V22.1165V22.1148V22.113V22.1112V22.1094V22.1076V22.1059V22.1041V22.1023V22.1005V22.0988V22.097V22.0952V22.0934V22.0917V22.0899V22.0881V22.0863V22.0846V22.0828V22.081V22.0792V22.0775V22.0757V22.0739V22.0721V22.0704V22.0686V22.0668V22.065V22.0632V22.0615V22.0597V22.0579V22.0561V22.0544V22.0526V22.0508V22.049V22.0473V22.0455V22.0437V22.0419V22.0402V22.0384V22.0366V22.0348V22.0331V22.0313V22.0295V22.0277V22.026V22.0242V22.0224V22.0206V22.0188V22.0171V22.0153V22.0135V22.0117V22.01V22.0082V22.0064V22.0046V22.0029V22.0011V21.9993V21.9975V21.9958V21.994V21.9922V21.9904V21.9887V21.9869V21.9851V21.9833V21.9816V21.9798V21.978C34.1874 18.5352 34.8872 15.5043 36.2783 12.8773C37.7064 10.2752 39.7577 8.77245 42.4431 8.3342Z" fill="#fff"/>
</svg>
