<svg width="43" height="41" viewBox="0 0 43 41" fill="none" xmlns="http://www.w3.org/2000/svg">
<g clip-path="url(#clip0)">
<path d="M26.155 32.667L25.9079 32.7135L25.9079 32.9655L25.9079 40.0889L25.9079 40.4331L26.2485 40.3902C31.1457 39.7733 35.1189 37.4036 38.1548 33.298C41.1968 29.1842 42.6972 23.3512 42.6972 15.8392L42.6972 0.607407L42.6972 0.303703L42.3944 0.303703L26.2107 0.303702L25.9079 0.303702L25.9079 0.607405L25.9079 17.1275L25.9079 17.4312L26.2107 17.4312L34.2155 17.4312C34.2329 17.6148 34.2505 17.7735 34.2683 17.9067C34.2898 18.0674 34.3134 18.2057 34.3416 18.3087L34.3416 18.3096L34.3416 18.3108L34.3416 18.312L34.3416 18.3132L34.3416 18.3144L34.3416 18.3156L34.3416 18.3169L34.3416 18.3181L34.3416 18.3193L34.3416 18.3205L34.3416 18.3217L34.3416 18.3229L34.3416 18.3241L34.3416 18.3253L34.3416 18.3265L34.3416 18.3278L34.3416 18.329L34.3416 18.3302L34.3416 18.3314L34.3416 18.3326L34.3416 18.3338L34.3416 18.335L34.3416 18.3363L34.3416 18.3375L34.3416 18.3387L34.3416 18.3399L34.3416 18.3412L34.3416 18.3424L34.3416 18.3436L34.3416 18.3448L34.3416 18.346L34.3416 18.3473L34.3416 18.3485L34.3416 18.3497L34.3416 18.3509L34.3416 18.3522L34.3416 18.3534L34.3416 18.3546L34.3416 18.3559L34.3416 18.3571L34.3416 18.3583L34.3416 18.3595L34.3416 18.3608L34.3416 18.362L34.3416 18.3632L34.3416 18.3645L34.3416 18.3657L34.3416 18.3669L34.3416 18.3682L34.3416 18.3694L34.3416 18.3706L34.3416 18.3719L34.3416 18.3731L34.3416 18.3743L34.3416 18.3756L34.3416 18.3768L34.3416 18.3781L34.3416 18.3793L34.3416 18.3805L34.3416 18.3818L34.3416 18.383L34.3416 18.3842L34.3416 18.3855L34.3416 18.3867L34.3416 18.388L34.3416 18.3892L34.3416 18.3905L34.3416 18.3917L34.3416 18.393L34.3416 18.3942L34.3416 18.3955L34.3416 18.3967L34.3416 18.3979L34.3416 18.3992L34.3416 18.4004L34.3416 18.4017L34.3416 18.4029L34.3416 18.4042L34.3416 18.4055L34.3416 18.4067L34.3416 18.4079L34.3416 18.4092L34.3416 18.4105L34.3416 18.4117L34.3416 18.4129L34.3416 18.4142L34.3416 18.4155L34.3416 18.4167L34.3416 18.418L34.3416 18.4192L34.3416 18.4205L34.3416 18.4218L34.3416 18.423L34.3416 18.4243L34.3416 18.4255L34.3416 18.4268L34.3416 18.428L34.3416 18.4293L34.3416 18.4306L34.3416 18.4318L34.3416 18.4331L34.3416 18.4344L34.3416 18.4356L34.3416 18.4369L34.3416 18.4382L34.3416 18.4394L34.3416 18.4407L34.3416 18.442L34.3416 18.4432L34.3416 18.4445L34.3416 18.4458L34.3416 18.447L34.3416 18.4483L34.3416 18.4496L34.3416 18.4509L34.3416 18.4521L34.3416 18.4534L34.3416 18.4547L34.3416 18.456L34.3416 18.4572L34.3416 18.4585L34.3416 18.4598L34.3416 18.4611L34.3416 18.4623L34.3416 18.4636L34.3416 18.4649L34.3416 18.4662L34.3416 18.4674L34.3416 18.4687L34.3416 18.47L34.3416 18.4713L34.3416 18.4726L34.3416 18.4738L34.3416 18.4751L34.3416 18.4764L34.3416 18.4777L34.3416 18.479L34.3416 18.4803L34.3416 18.4816L34.3416 18.4828L34.3416 18.4841L34.3416 18.4854L34.3416 18.4867L34.3416 18.488L34.3416 18.4893L34.3416 18.4905L34.3416 18.4919L34.3416 18.4931L34.3416 18.4944L34.3416 18.4957L34.3416 18.497L34.3416 18.4983L34.3416 18.4996L34.3416 18.5009L34.3416 18.5022L34.3416 18.5035L34.3416 18.5048L34.3416 18.5061L34.3416 18.5074L34.3416 18.5087L34.3416 18.51L34.3416 18.5113L34.3416 18.5126L34.3416 18.5139L34.3416 18.5152L34.3416 18.5165L34.3416 18.5178L34.3416 18.5191L34.3416 18.5204L34.3416 18.5217L34.3416 18.523L34.3416 18.5243L34.3416 18.5256L34.3416 18.5269L34.3416 18.5282L34.3416 18.5295L34.3416 18.5308L34.3416 18.5321L34.3416 18.5334L34.3416 18.5348L34.3416 18.5361L34.3416 18.5374L34.3416 18.5387L34.3416 18.54L34.3416 18.5413L34.3416 18.5426L34.3416 18.5439L34.3416 18.5452L34.3416 18.5466L34.3416 18.5479L34.3416 18.5492L34.3416 18.5505L34.3416 18.5518L34.3416 18.5531L34.3416 18.5544L34.3416 18.5558L34.3416 18.5571L34.3416 18.5584L34.3416 18.5597L34.3416 18.5611L34.3416 18.5624L34.3416 18.5637L34.3416 18.565L34.3416 18.5664L34.3416 18.5677L34.3416 18.569L34.3416 18.5703L34.3416 18.5716L34.3416 18.573L34.3416 18.5743L34.3416 18.5756L34.3416 18.5769L34.3416 18.5783L34.3416 18.5796L34.3416 18.5809L34.3416 18.5823L34.3416 18.5836L34.3416 18.5849L34.3416 18.5863L34.3416 18.5876L34.3416 18.5889L34.3416 18.5903L34.3416 18.5916L34.3416 18.5929L34.3416 18.5943L34.3416 18.5956L34.3416 18.5969L34.3416 18.5983L34.3416 18.5996L34.3416 18.6009L34.3416 18.6023L34.3416 18.6036L34.3416 18.605L34.3416 18.6063L34.3416 18.6077L34.3416 18.609L34.3416 18.6103L34.3416 18.6117L34.3416 18.613L34.3416 18.6144L34.3416 18.6157L34.3416 18.617L34.3416 18.6184L34.3416 18.6197L34.3416 18.6211L34.3416 18.6224L34.3416 18.6238L34.3416 18.6251L34.3416 18.6265L34.3416 18.6278L34.3416 18.6292L34.3416 18.6305L34.3416 18.6319L34.3416 18.6332L34.3416 18.6346L34.3416 18.636L34.3416 18.6373L34.3416 18.6387L34.3416 18.64L34.3416 18.6414L34.3416 18.6427L34.3416 18.6441L34.3416 18.6454L34.3416 18.6468L34.3416 18.6481L34.3416 18.6495L34.3416 18.6509L34.3416 18.6522L34.3416 18.6536L34.3416 18.6549L34.3416 18.6563L34.3416 18.6577L34.3416 18.659L34.3416 18.6604L34.3416 18.6618L34.3416 18.6631L34.3416 18.6645L34.3416 18.6659L34.3416 18.6672L34.3416 18.6686L34.3416 18.67L34.3416 18.6713L34.3416 18.6727L34.3416 18.6741L34.3416 18.6754L34.3416 18.6768L34.3416 18.6782L34.3416 18.6795L34.3416 18.6809L34.3416 18.6823L34.3416 18.6837L34.3416 18.685L34.3416 18.6864L34.3416 18.6878L34.3416 18.6892L34.3416 18.6905L34.3416 18.6919L34.3416 18.6933L34.3416 18.6947L34.3416 18.6961L34.3416 18.6974L34.3416 18.6988L34.3416 18.7002L34.3416 18.7016L34.3416 18.703L34.3416 18.7044L34.3416 18.7057L34.3416 18.7071L34.3416 18.7085L34.3416 18.7099L34.3416 18.7112L34.3416 18.7126L34.3416 18.714L34.3416 18.7154L34.3416 18.7168L34.3416 18.7182L34.3416 18.7196L34.3416 18.721L34.3416 18.7224L34.3416 18.7238L34.3416 18.7251L34.3416 18.7265L34.3416 18.7279L34.3416 18.7293L34.3416 18.7307L34.3416 18.7321L34.3416 18.7335L34.3416 18.7349L34.3416 18.7363L34.3416 18.7377L34.3416 18.7391L34.3416 18.7405L34.3416 18.7419L34.3416 18.7433L34.3416 18.7447L34.3416 18.7461L34.3416 18.7475L34.3416 18.7489L34.3416 18.7503L34.3416 18.7517L34.3416 18.7531L34.3416 18.7545L34.3416 18.7559L34.3416 18.7573L34.3416 18.7587L34.3416 18.7601L34.3416 18.7615L34.3416 18.7629L34.3416 18.7643L34.3416 18.7657L34.3416 18.7671L34.3416 18.7686L34.3416 18.77L34.3416 18.7714L34.3416 18.7728L34.3416 18.7742L34.3416 18.7756L34.3416 18.777L34.3416 18.7784L34.3416 18.7798L34.3416 18.7813L34.3416 18.7826L34.3416 18.7841L34.3416 18.7855L34.3416 18.7869L34.3416 18.7883L34.3416 18.7898L34.3416 18.7912L34.3416 18.7926L34.3416 18.794L34.3416 18.7954L34.3416 18.7968L34.3416 18.7983L34.3416 18.7997L34.3416 18.8011L34.3416 18.8025L34.3416 18.8039L34.3416 18.8054L34.3416 18.8068L34.3416 18.8082L34.3416 18.8096L34.3416 18.8111L34.3416 18.8125L34.3416 18.8139L34.3416 18.8154L34.3416 18.8168L34.3416 18.8182L34.3416 18.8196L34.3416 18.8211L34.3416 18.8225L34.3416 18.8239L34.3416 18.8253L34.3416 18.8268L34.3416 18.8282L34.3416 18.8297L34.3416 18.8311L34.3416 18.8325L34.3416 18.834L34.3416 18.8354L34.3416 18.8368L34.3416 18.8383L34.3416 18.8397L34.3416 18.8411L34.3416 18.8426L34.3416 18.844L34.3416 18.8455L34.3416 18.8469L34.3416 18.8483L34.3416 18.8498L34.3416 18.8512L34.3416 18.8527L34.3416 18.8541L34.3416 18.8556L34.3416 18.857L34.3416 18.8585L34.3416 18.8599L34.3416 18.8613L34.3416 18.8628L34.3416 18.8643L34.3416 18.8657L34.3416 18.8671L34.3416 18.8686L34.3416 18.87L34.3416 18.8715L34.3416 18.8729L34.3416 18.8744L34.3416 18.8758L34.3416 18.8773L34.3416 18.8787L34.3416 18.8802L34.3416 18.8817L34.3416 18.8831L34.3416 18.8846L34.3416 18.886L34.3416 18.8875L34.3416 18.8889L34.3416 18.8904L34.3416 18.8919L34.3416 18.8933L34.3416 18.8948L34.3416 18.8962L34.3416 18.8977L34.3416 18.8991L34.3416 18.9006L34.3416 18.9021L34.3416 18.9036L34.3416 18.905L34.3416 18.9065L34.3416 18.9079L34.3416 18.9094L34.3416 18.9109L34.3416 18.9123L34.3416 18.9138L34.3416 18.9153L34.3416 18.9167L34.3416 18.9182L34.3416 18.9197L34.3416 18.9211L34.3416 18.9226L34.3416 18.9241L34.3416 18.9255L34.3416 18.927L34.3416 18.9285L34.3416 18.93L34.3416 18.9314L34.3416 18.9329L34.3416 18.9344L34.3416 18.9359L34.3416 18.9374L34.3416 18.9388L34.3416 18.9403L34.3416 18.9418L34.3416 18.9432L34.3416 18.9447L34.3416 18.9462C34.3416 21.0336 33.9929 23.1488 33.293 25.293L33.2926 25.294C31.8968 29.6198 29.508 32.037 26.155 32.667ZM0.556879 32.6658L0.302813 32.7073L0.302813 32.9655L0.302812 40.0889L0.302812 40.4319L0.642271 40.3903C6.50481 39.6723 10.7494 36.8924 13.333 32.0485C15.8922 27.3005 17.1681 21.8949 17.1681 15.8392L17.1681 0.607404L17.1681 0.303701L16.8652 0.303701L0.605634 0.3037L0.302816 0.3037L0.302816 0.607403L0.302814 17.1275L0.302814 17.4312L0.605633 17.4312L8.65693 17.4312C8.72324 17.6825 8.77502 17.9181 8.81258 18.1382L8.81258 18.1393L8.81258 18.141L8.81258 18.1428L8.81258 18.1446L8.81258 18.1464L8.81258 18.1482L8.81258 18.1499L8.81258 18.1517L8.81258 18.1535L8.81258 18.1553L8.81258 18.157L8.81258 18.1588L8.81258 18.1606L8.81258 18.1624L8.81258 18.1642L8.81258 18.1659L8.81258 18.1677L8.81258 18.1695L8.81258 18.1712L8.81258 18.173L8.81258 18.1748L8.81258 18.1766L8.81258 18.1783L8.81258 18.1801L8.81258 18.1819L8.81258 18.1837L8.81258 18.1854L8.81258 18.1872L8.81258 18.189L8.81258 18.1908L8.81258 18.1925L8.81258 18.1943L8.81258 18.1961L8.81258 18.1979L8.81258 18.1997L8.81258 18.2014L8.81258 18.2032L8.81258 18.205L8.81258 18.2068L8.81258 18.2086L8.81258 18.2103L8.81258 18.2121L8.81258 18.2139L8.81258 18.2156L8.81258 18.2174L8.81258 18.2192L8.81258 18.221L8.81258 18.2227L8.81258 18.2245L8.81258 18.2263L8.81258 18.2281L8.81258 18.2298L8.81258 18.2316L8.81258 18.2334L8.81258 18.2352L8.81258 18.237L8.81258 18.2387L8.81258 18.2405L8.81258 18.2423L8.81258 18.2441L8.81258 18.2458L8.81258 18.2476L8.81258 18.2494L8.81258 18.2512L8.81258 18.253L8.81258 18.2547L8.81258 18.2565L8.81258 18.2583L8.81258 18.2601L8.81258 18.2618L8.81258 18.2636L8.81258 18.2654L8.81258 18.2671L8.81258 18.2689L8.81258 18.2707L8.81258 18.2725L8.81258 18.2742L8.81258 18.276L8.81258 18.2778L8.81258 18.2796L8.81258 18.2814L8.81258 18.2831L8.81258 18.2849L8.81258 18.2867L8.81258 18.2885L8.81258 18.2903L8.81258 18.292L8.81258 18.2938L8.81258 18.2956L8.81258 18.2974L8.81258 18.2991L8.81258 18.3009L8.81258 18.3027L8.81258 18.3045L8.81258 18.3062L8.81258 18.308L8.81258 18.3098L8.81258 18.3116L8.81258 18.3133L8.81258 18.3151L8.81258 18.3169L8.81258 18.3186L8.81258 18.3204L8.81258 18.3222L8.81258 18.324L8.81258 18.3258L8.81258 18.3275L8.81258 18.3293L8.81258 18.3311L8.81258 18.3329L8.81258 18.3347L8.81258 18.3364L8.81258 18.3382L8.81258 18.34L8.81258 18.3418L8.81258 18.3435L8.81258 18.3453L8.81258 18.3471L8.81258 18.3489L8.81258 18.3506L8.81258 18.3524L8.81258 18.3542L8.81258 18.356L8.81258 18.3577L8.81258 18.3595L8.81258 18.3613L8.81258 18.363L8.81258 18.3648L8.81258 18.3666L8.81258 18.3684L8.81258 18.3702L8.81258 18.3719L8.81258 18.3737L8.81258 18.3755L8.81258 18.3773L8.81258 18.3791L8.81258 18.3808L8.81258 18.3826L8.81258 18.3844L8.81258 18.3862L8.81258 18.3879L8.81258 18.3897L8.81258 18.3915L8.81258 18.3933L8.81258 18.395L8.81258 18.3968L8.81258 18.3986L8.81258 18.4004L8.81258 18.4021L8.81258 18.4039L8.81258 18.4057L8.81258 18.4075L8.81258 18.4092L8.81258 18.411L8.81258 18.4128L8.81258 18.4146L8.81258 18.4163L8.81258 18.4181L8.81258 18.4199L8.81258 18.4217L8.81258 18.4235L8.81258 18.4252L8.81258 18.427L8.81258 18.4288L8.81258 18.4306L8.81258 18.4323L8.81258 18.4341L8.81258 18.4359L8.81258 18.4377L8.81258 18.4394L8.81258 18.4412L8.81258 18.443L8.81258 18.4448L8.81258 18.4465L8.81258 18.4483L8.81258 18.4501L8.81258 18.4519L8.81258 18.4536L8.81258 18.4554L8.81258 18.4572L8.81258 18.459L8.81258 18.4608L8.81258 18.4625L8.81258 18.4643L8.81258 18.4661L8.81258 18.4679L8.81258 18.4696L8.81258 18.4714L8.81258 18.4732L8.81258 18.475L8.81258 18.4767L8.81258 18.4785L8.81258 18.4803L8.81258 18.4821L8.81258 18.4838L8.81258 18.4856L8.81258 18.4874L8.81258 18.4892L8.81258 18.4909L8.81258 18.4927L8.81258 18.4945L8.81258 18.4963L8.81258 18.498L8.81258 18.4998L8.81258 18.5016L8.81258 18.5034L8.81258 18.5052L8.81258 18.5069L8.81258 18.5087L8.81258 18.5105L8.81258 18.5123L8.81258 18.514L8.81258 18.5158L8.81258 18.5176L8.81258 18.5194L8.81258 18.5211L8.81258 18.5229L8.81258 18.5247L8.81258 18.5265L8.81258 18.5282L8.81258 18.53L8.81258 18.5318L8.81258 18.5336L8.81258 18.5353L8.81258 18.5371L8.81258 18.5389L8.81258 18.5407L8.81258 18.5424L8.81258 18.5442L8.81258 18.546L8.81258 18.5478L8.81258 18.5496L8.81258 18.5513L8.81258 18.5531L8.81258 18.5549L8.81258 18.5567L8.81258 18.5584L8.81258 18.5602L8.81258 18.562L8.81258 18.5638L8.81258 18.5655L8.81258 18.5673L8.81258 18.5691L8.81258 18.5709L8.81258 18.5726L8.81258 18.5744L8.81258 18.5762L8.81258 18.578L8.81258 18.5797L8.81258 18.5815L8.81258 18.5833L8.81258 18.5851L8.81258 18.5868L8.81258 18.5886L8.81258 18.5904L8.81258 18.5922L8.81258 18.594L8.81258 18.5957L8.81258 18.5975L8.81258 18.5993L8.81258 18.6011L8.81258 18.6028L8.81258 18.6046L8.81258 18.6064L8.81258 18.6082L8.81258 18.6099L8.81258 18.6117L8.81258 18.6135L8.81258 18.6153L8.81258 18.617L8.81258 18.6188L8.81258 18.6206L8.81258 18.6224L8.81258 18.6241L8.81258 18.6259L8.81258 18.6277L8.81258 18.6295L8.81258 18.6313L8.81258 18.633L8.81258 18.6348L8.81258 18.6366L8.81258 18.6384L8.81258 18.6401L8.81258 18.6419L8.81258 18.6437L8.81258 18.6455L8.81258 18.6472L8.81258 18.649L8.81258 18.6508L8.81258 18.6526L8.81258 18.6543L8.81258 18.6561L8.81258 18.6579L8.81258 18.6597L8.81258 18.6614L8.81258 18.6632L8.81258 18.665L8.81258 18.6668L8.81258 18.6685L8.81258 18.6703L8.81258 18.6721L8.81258 18.6739L8.81258 18.6757L8.81258 18.6774L8.81258 18.6792L8.81258 18.681L8.81258 18.6828L8.81258 18.6846L8.81258 18.6863L8.81258 18.6881L8.81258 18.6899L8.81258 18.6916L8.81258 18.6934L8.81258 18.6952L8.81258 18.697L8.81258 18.6987L8.81258 18.7005L8.81258 18.7023L8.81258 18.7041L8.81258 18.7058L8.81258 18.7076L8.81258 18.7094L8.81258 18.7112L8.81258 18.7129L8.81258 18.7147L8.81258 18.7165L8.81258 18.7183L8.81258 18.7201L8.81258 18.7218L8.81258 18.7236L8.81258 18.7254L8.81258 18.7272L8.81258 18.729L8.81258 18.7307L8.81258 18.7325L8.81258 18.7343L8.81258 18.736L8.81258 18.7378L8.81258 18.7396L8.81258 18.7414L8.81258 18.7431L8.81258 18.7449L8.81258 18.7467L8.81258 18.7485L8.81258 18.7502L8.81258 18.752L8.81258 18.7538L8.81258 18.7556L8.81258 18.7573L8.81258 18.7591L8.81258 18.7609L8.81258 18.7627L8.81258 18.7645L8.81258 18.7662L8.81258 18.768L8.81258 18.7698L8.81258 18.7716L8.81258 18.7734L8.81258 18.7751L8.81258 18.7769L8.81258 18.7787L8.81258 18.7805L8.81258 18.7822L8.81258 18.784L8.81258 18.7858L8.81258 18.7876L8.81258 18.7893L8.81258 18.7911L8.81258 18.7929L8.81258 18.7946L8.81258 18.7964L8.81258 18.7982L8.81258 18.8L8.81258 18.8018L8.81258 18.8035L8.81258 18.8053L8.81258 18.8071L8.81258 18.8089L8.81258 18.8106L8.81258 18.8124L8.81258 18.8142L8.81258 18.816L8.81258 18.8178L8.81258 18.8195L8.81258 18.8213L8.81258 18.8231L8.81258 18.8249L8.81258 18.8266L8.81258 18.8284L8.81258 18.8302L8.81258 18.832L8.81258 18.8337L8.81258 18.8355L8.81258 18.8373L8.81258 18.839L8.81258 18.8408L8.81258 18.8426L8.81258 18.8444L8.81258 18.8462L8.81258 18.8479L8.81258 18.8497L8.81258 18.8515L8.81258 18.8533L8.81258 18.855L8.81258 18.8568L8.81258 18.8586L8.81258 18.8604L8.81258 18.8622L8.81258 18.8639L8.81258 18.8657L8.81258 18.8675L8.81258 18.8693L8.81258 18.871L8.81258 18.8728L8.81258 18.8746L8.81258 18.8764L8.81258 18.8781L8.81258 18.8799L8.81258 18.8817L8.81258 18.8834L8.81258 18.8852L8.81258 18.887L8.81258 18.8888L8.81258 18.8906L8.81258 18.8923L8.81258 18.8941L8.81258 18.8959L8.81258 18.8977L8.81258 18.8994L8.81258 18.9012L8.81258 18.903L8.81258 18.9048L8.81258 18.9066L8.81258 18.9083L8.81258 18.9101L8.81258 18.9119L8.81258 18.9137L8.81258 18.9154L8.81258 18.9172L8.81258 18.919L8.81258 18.9208L8.81258 18.9225L8.81258 18.9243L8.81258 18.9261L8.81258 18.9278L8.81258 18.9296L8.81258 18.9314L8.81258 18.9332L8.81258 18.935L8.81258 18.9367L8.81258 18.9385L8.81258 18.9403L8.81258 18.9421L8.81258 18.9439L8.81258 18.9456L8.81258 18.9474L8.81258 18.9492L8.81258 18.951L8.81258 18.9527L8.81258 18.9545L8.81258 18.9563L8.81258 18.9581L8.81258 18.9598L8.81258 18.9616L8.81258 18.9634L8.81258 18.9652L8.81258 18.9669L8.81258 18.9687L8.81258 18.9705L8.81258 18.9723L8.81258 18.974L8.81258 18.9758L8.81258 18.9776L8.81258 18.9794L8.81258 18.9811L8.81258 18.9829L8.81258 18.9847L8.81258 18.9865L8.81258 18.9883L8.81258 18.99L8.81258 18.9918L8.81258 18.9936L8.81258 18.9954L8.81258 18.9971L8.81258 18.9989L8.81258 19.0007L8.81258 19.0025L8.81258 19.0042L8.81258 19.006L8.81258 19.0078L8.81258 19.0096L8.81258 19.0113L8.81258 19.0131L8.81258 19.0149L8.81258 19.0167L8.81258 19.0184L8.81258 19.0202L8.81258 19.022C8.81258 22.4648 8.11277 25.4957 6.72163 28.1227C5.29354 30.7248 3.24226 32.2275 0.556879 32.6658Z" fill="#FF7C1D"/>
</g>
<defs>
<clipPath id="clip0">
<rect width="43" height="41" fill="white" transform="translate(43 41) rotate(-180)"/>
</clipPath>
</defs>
</svg>
