<svg width="80" height="80" viewBox="0 0 80 80" fill="none" xmlns="http://www.w3.org/2000/svg">
<path d="M75 0H5C2.23858 0 0 2.23858 0 5V75C0 77.7614 2.23858 80 5 80H75C77.7614 80 80 77.7614 80 75V5C80 2.23858 77.7614 0 75 0Z" fill="#3B5998"/>
<path fill-rule="evenodd" clip-rule="evenodd" d="M44.6288 31.5905L45.2093 27.9068C43.7222 27.8055 42.2297 27.8167 40.7442 27.9403C39.7083 28.0782 38.7613 28.5985 38.0894 29.3989C37.4552 30.2571 37.1411 31.3102 37.2018 32.3756V37.1979L33.4809 37.1701V40.904L37.2018 40.9171V52.0798L40.9469 52.0705V40.9077H45.3637L45.9405 37.1737H40.9469C40.9469 37.1737 40.9469 32.9226 40.9469 32.5058C40.9634 32.3617 41.0096 32.2226 41.0828 32.0973C41.1559 31.972 41.2543 31.8632 41.3717 31.778C41.4892 31.6928 41.623 31.6329 41.7648 31.6022C41.9066 31.5716 42.0532 31.5707 42.1954 31.5998C43.0177 31.5886 44.6288 31.5905 44.6288 31.5905Z" fill="white"/>
<path d="M48.3721 26.0466H31.6279C28.5454 26.0466 26.0465 28.5455 26.0465 31.628V48.3722C26.0465 51.4547 28.5454 53.9536 31.6279 53.9536H48.3721C51.4546 53.9536 53.9535 51.4547 53.9535 48.3722V31.628C53.9535 28.5455 51.4546 26.0466 48.3721 26.0466Z" fill="white"/>
<path fill-rule="evenodd" clip-rule="evenodd" d="M46.4893 35.3115L47.0698 31.6277C45.5827 31.5264 44.0901 31.5377 42.6047 31.6612C41.5688 31.7991 40.6218 32.3194 39.9498 33.1198C39.3156 33.9781 39.0016 35.0312 39.0623 36.0966V40.9189L35.3414 40.891V44.6249L39.0623 44.638V55.8008L42.8074 55.7915V44.6287H47.2242L47.8009 40.8947H42.8074C42.8074 40.8947 42.8074 36.6435 42.8074 36.2268C42.8238 36.0826 42.8701 35.9435 42.9432 35.8182C43.0163 35.6929 43.1148 35.5842 43.2322 35.499C43.3496 35.4137 43.4834 35.3539 43.6252 35.3232C43.767 35.2925 43.9137 35.2917 44.0558 35.3207C44.8782 35.3096 46.4893 35.3115 46.4893 35.3115Z" fill="#3B5998"/>
</svg>
