<svg width="61" height="61" viewBox="0 0 61 61" fill="none" xmlns="http://www.w3.org/2000/svg">
<g clip-path="url(#clip0)">
<path d="M52.4563 8.44464C47.7454 8.44464 43.9124 12.2774 43.9124 16.9883C43.9124 21.6993 47.7451 25.5322 52.4563 25.5322C57.1673 25.5322 61 21.6993 61 16.9883C61 12.2774 57.1673 8.44464 52.4563 8.44464ZM52.4563 21.9562C49.7169 21.9562 47.4884 19.7278 47.4884 16.9883C47.4884 14.2491 49.7169 12.0206 52.4563 12.0206C55.1956 12.0206 57.424 14.2491 57.424 16.9883C57.4242 19.7278 55.1956 21.9562 52.4563 21.9562Z" fill="white"/>
<path d="M2.21243 19.9416C2.56158 20.2906 3.01919 20.4652 3.47679 20.4652C3.93439 20.4652 4.39199 20.2906 4.74115 19.9416L9.38824 15.2945L14.0353 19.9416C14.3845 20.2906 14.8421 20.4652 15.2997 20.4652C15.7573 20.4652 16.2149 20.2906 16.5641 19.9416C17.2622 19.2435 17.2622 18.1112 16.5641 17.4129L11.9168 12.766L16.5639 8.11893C17.262 7.42082 17.262 6.28852 16.5639 5.5902C15.8655 4.8923 14.7337 4.8923 14.0351 5.5902L9.38824 10.2373L4.74115 5.5902C4.04284 4.8923 2.91095 4.8923 2.21243 5.5902C1.51431 6.28831 1.51431 7.42061 2.21243 8.11893L6.85952 12.766L2.21243 17.4129C1.51431 18.1112 1.51431 19.2433 2.21243 19.9416Z" fill="white"/>
<path d="M40.2091 41.0583C39.5108 40.3604 38.3789 40.3604 37.6804 41.0583L33.0335 45.7052L28.3864 41.0583C27.6881 40.3604 26.5562 40.3604 25.8576 41.0583C25.1595 41.7567 25.1595 42.8887 25.8576 43.5871L30.5047 48.2339L25.8576 52.881C25.1595 53.5791 25.1595 54.7114 25.8576 55.4098C26.2068 55.7587 26.6644 55.9333 27.122 55.9333C27.5796 55.9333 28.0372 55.7587 28.3864 55.4098L33.0335 50.7627L37.6804 55.4096C38.0295 55.7585 38.4871 55.9331 38.9447 55.9331C39.4023 55.9331 39.8599 55.7585 40.2091 55.4096C40.9072 54.7112 40.9072 53.5791 40.2091 52.8808L35.5622 48.2339L40.2091 43.5871C40.9074 42.8887 40.9074 41.7565 40.2091 41.0583Z" fill="white"/>
<path d="M40.3483 15.9865L33.1378 9.71851C32.3927 9.07051 31.2632 9.15 30.6154 9.89493C29.9676 10.6401 30.0467 11.7693 30.7919 12.4173L34.6158 15.7415C23.3293 17.2176 16.6466 23.1157 12.9316 28.1009C9.67764 32.4674 8.15634 36.7684 7.54552 38.9059C3.30345 39.4019 0 43.0161 0 47.3894C0 52.1004 3.83273 55.9333 8.5437 55.9333C13.2547 55.9333 17.0876 52.1006 17.0876 47.3894C17.0876 43.5971 14.6032 40.3758 11.1772 39.2628C11.8207 37.2299 13.2144 33.6704 15.8855 30.1225C20.5354 23.9463 26.9951 20.3091 35.1212 19.2748L31.5582 23.3737C30.9104 24.1188 30.9894 25.248 31.7346 25.896C32.0731 26.1904 32.4908 26.3345 32.9067 26.3345C33.4064 26.3345 33.9035 26.1263 34.257 25.7196L40.525 18.5089C41.1728 17.7635 41.0937 16.6345 40.3483 15.9865ZM13.5116 47.3894C13.5116 50.1289 11.2832 52.3573 8.5437 52.3573C5.80445 52.3573 3.576 50.1289 3.576 47.3894C3.576 44.6502 5.80445 42.4217 8.5437 42.4217C11.283 42.4217 13.5116 44.6502 13.5116 47.3894Z" fill="white"/>
</g>
<defs>
<clipPath id="clip0">
<rect width="61" height="61" fill="white"/>
</clipPath>
</defs>
</svg>
