<svg width="53" height="53" viewBox="0 0 53 53" fill="none" xmlns="http://www.w3.org/2000/svg">
<g clip-path="url(#clip0)">
<path d="M8.13597 0.562828C6.50878 1.45398 6.04387 2.43893 6.04387 5.01858V7.50443H8.83334C11.4833 7.50443 11.6228 7.55133 11.6228 8.67699V9.84956H6.32281C2.41755 9.84956 0.88334 10.0372 0.51141 10.5062C0.13948 10.9283 6.27339e-06 16.0407 0.0929887 28.423L0.232462 45.7301L10.1351 45.8708L19.9912 45.9646V48.3097V50.6549H17.2483C15.4816 50.6549 14.4588 50.8425 14.3193 51.2177C13.6684 52.9062 14.2263 53 26.5 53C38.7272 53 39.2851 52.9062 38.7272 51.2177C38.5877 50.8425 37.5649 50.6549 35.7518 50.6549H33.0088V48.3097V45.9646L42.9114 45.8708L52.7675 45.7301L52.907 28.423C53 16.0407 52.8605 10.9283 52.4886 10.5062C52.1167 10.0372 50.5825 9.84956 46.7237 9.84956H41.4702L41.2842 6.05044C41.1447 2.57964 41.0053 2.15752 39.843 1.12566L38.5412 0H23.8035C14.0404 0.0469017 8.74036 0.187607 8.13597 0.562828ZM10.879 2.62655C11.2974 2.76725 11.6228 3.42389 11.6228 4.03363C11.6228 5.01858 11.3904 5.15929 9.99562 5.15929C8.74036 5.15929 8.36843 4.97168 8.36843 4.31504C8.36843 3.47079 9.20527 2.34513 9.80966 2.34513C9.99562 2.34513 10.4605 2.48584 10.879 2.62655ZM38.1228 2.81416C38.7272 3.18938 38.8202 5.62832 38.9597 19.2301L39.0991 35.177H26.5H13.9474V18.7611V2.34513H25.7097C32.2649 2.34513 37.7509 2.53274 38.1228 2.81416ZM11.6228 23.6858V35.177H9.80966C7.9965 35.177 6.64825 36.115 7.20615 37.0531C7.62457 37.7097 45.3754 37.7097 45.7939 37.0531C46.3518 36.115 45.0035 35.177 43.1904 35.177H41.3772V23.6858V12.1478L45.9333 12.2885L50.443 12.4292L50.5825 28.0009L50.6754 43.6195H26.5H2.32457V28.2354C2.32457 19.746 2.46404 12.6637 2.65001 12.523C2.78948 12.3354 4.88159 12.1947 7.29913 12.1947H11.6228V23.6858ZM30.6842 48.3097V50.6549H26.5H22.3158V48.3097V45.9646H26.5H30.6842V48.3097Z" fill="white" stroke="white" stroke-width="0.5"/>
<path d="M23.5711 7.36374C23.3851 7.50445 23.2456 9.61507 23.2456 12.054C23.2456 15.9 23.3386 16.416 24.0825 16.416C25.4307 16.3691 32.3114 12.4761 32.3114 11.7257C32.3114 11.3036 30.7307 10.1779 28.5921 9.05224C24.7798 7.03542 24.0825 6.80091 23.5711 7.36374ZM27.8483 11.5381C28.0807 11.7726 26.4535 13.0859 25.9421 13.1328C25.7097 13.1328 25.5702 12.4761 25.5702 11.7257C25.5702 10.3655 25.6632 10.3186 26.6395 10.8345C27.1974 11.116 27.7553 11.4443 27.8483 11.5381Z" fill="white" stroke="white" stroke-width="0.5"/>
<path d="M21.7114 21.3876C21.5255 21.5752 21.386 22.138 21.386 22.607C21.386 23.4044 21.9439 23.4513 28.8711 23.4513H36.3097L36.1702 22.3725C36.0307 21.3407 35.8912 21.3407 29.0105 21.2C25.1983 21.1531 21.8974 21.2469 21.7114 21.3876Z" fill="white" stroke="white" stroke-width="0.5"/>
<path d="M17.0623 26.0779C16.8763 26.2655 16.7368 26.8283 16.7368 27.2974C16.7368 28.0947 17.3412 28.1416 26.5465 28.1416H36.3097L36.1702 27.0628C36.0307 26.031 35.9842 26.031 26.686 25.8903C21.5719 25.8434 17.2483 25.9372 17.0623 26.0779Z" fill="white" stroke="white" stroke-width="0.5"/>
<path d="M17.0623 30.7681C16.8763 30.9557 16.7368 31.5186 16.7368 31.9876C16.7368 32.7849 17.2947 32.8318 24.2219 32.8318H31.6605L31.5211 31.7531C31.3816 30.7212 31.2421 30.7212 24.3614 30.5805C20.5491 30.5336 17.2483 30.6274 17.0623 30.7681Z" fill="white" stroke="white" stroke-width="0.5"/>
</g>
<defs>
<clipPath id="clip0">
<rect width="53" height="53" fill="white"/>
</clipPath>
</defs>
</svg>
