<svg width="55" height="55" viewBox="0 0 55 55" fill="none" xmlns="http://www.w3.org/2000/svg">
<path d="M53.3887 3.33008H1.61133C0.721445 3.33008 0 4.05152 0 4.94141V40.3906C0 41.2805 0.721445 42.002 1.61133 42.002H19.4434V48.4473H17.832C16.9421 48.4473 16.2207 49.1687 16.2207 50.0586C16.2207 50.9485 16.9421 51.6699 17.832 51.6699H37.168C38.0578 51.6699 38.7793 50.9485 38.7793 50.0586C38.7793 49.1687 38.0578 48.4473 37.168 48.4473H35.5566V42.002H53.3887C54.2786 42.002 55 41.2805 55 40.3906V4.94141C55 4.05152 54.2786 3.33008 53.3887 3.33008ZM32.334 48.4473H22.666V42.002H32.334V48.4473ZM51.7773 38.7793H3.22266V6.55273H51.7773V38.7793Z" fill="white"/>
<path d="M18.2617 34.4824C24.7773 34.4824 30.0781 29.1816 30.0781 22.666C30.0781 16.1504 24.7773 10.8496 18.2617 10.8496C11.7462 10.8496 6.44531 16.1504 6.44531 22.666C6.44531 29.1816 11.7462 34.4824 18.2617 34.4824ZM26.7017 21.0547H19.873V14.226C23.3215 14.8831 26.0446 17.6062 26.7017 21.0547ZM16.6504 14.226V22.666C16.6504 23.5559 17.3718 24.2773 18.2617 24.2773H26.7017C25.9452 28.2482 22.4495 31.2598 18.2617 31.2598C13.5231 31.2598 9.66797 27.4046 9.66797 22.666C9.66797 18.4783 12.6796 14.9827 16.6504 14.226Z" fill="white"/>
<path d="M38.0238 27.5651C38.326 27.8672 38.7358 28.0371 39.1631 28.0371C39.5904 28.0371 40.0002 27.8674 40.3025 27.5651L45.3383 22.5293C45.4017 23.361 46.0953 24.0166 46.9432 24.0166C47.8331 24.0166 48.5546 23.2952 48.5546 22.4053V18.6455C48.5546 17.7556 47.8331 17.0342 46.9432 17.0342H43.1835C42.2936 17.0342 41.5722 17.7556 41.5722 18.6455C41.5722 19.4936 42.2277 20.1871 43.0595 20.2506L39.1631 24.1469L36.0514 21.0351C35.4222 20.4057 34.4021 20.4059 33.7727 21.0351C33.1434 21.6643 33.1434 22.6846 33.7727 23.3138L38.0238 27.5651Z" fill="white"/>
<path d="M34.9121 34.4824H46.9434C47.8332 34.4824 48.5547 33.761 48.5547 32.8711C48.5547 31.9812 47.8332 31.2598 46.9434 31.2598H34.9121C34.0222 31.2598 33.3008 31.9812 33.3008 32.8711C33.3008 33.761 34.0222 34.4824 34.9121 34.4824Z" fill="white"/>
</svg>
