<svg width="61" height="61" viewBox="0 0 61 61" fill="none" xmlns="http://www.w3.org/2000/svg">
<path d="M30.5008 13.782C21.7993 13.782 14.7198 20.8614 14.7198 29.563C14.7198 33.1241 15.8875 36.489 18.0951 39.2921C18.5308 39.8469 18.9887 40.378 19.4734 40.9403L19.5001 40.9712C20.9831 42.6918 22.5165 44.4716 23.0892 46.5673C23.2187 47.0475 23.237 47.9683 23.2296 48.6776V49.8832C23.2296 50.9864 24.124 51.8808 25.2272 51.8808H35.6875C36.7908 51.8808 37.6852 50.9864 37.6852 49.8832V48.6635C37.6785 47.7371 37.7265 47.0611 37.8231 46.7103C38.399 44.6285 40.0984 42.6295 41.6112 40.8503L41.6765 40.7736C42.1131 40.2606 42.5256 39.7761 42.9012 39.2985C45.1119 36.4938 46.2804 33.1273 46.2804 29.563C46.2802 20.8614 39.2015 13.782 30.5008 13.782ZM39.7617 36.8273C39.4327 37.2457 39.0449 37.7014 38.6342 38.1838L38.5538 38.2784C36.7865 40.357 34.7835 42.7129 33.9717 45.6476C33.8569 46.0642 33.7293 46.6874 33.6968 47.8855H27.2212C27.1935 46.6131 27.0638 45.9606 26.9452 45.5211C26.1328 42.5475 24.1333 40.2273 22.5264 38.3625L22.4995 38.3311C22.0454 37.8045 21.6165 37.307 21.2354 36.8222C19.5866 34.7286 18.7151 32.2183 18.7151 29.563C18.7151 23.0644 24.0023 17.7773 30.5008 17.7773C36.9985 17.7773 42.2849 23.0644 42.2849 29.563C42.2849 32.2212 41.4128 34.7324 39.7617 36.8273Z" fill="white"/>
<path d="M35.6872 52.4479H25.2272C24.124 52.4479 23.2296 53.3423 23.2296 54.4455C23.2296 55.5488 24.124 56.4432 25.2272 56.4432H35.6875C36.7908 56.4432 37.6852 55.5488 37.6852 54.4455C37.6852 53.3423 36.7905 52.4479 35.6872 52.4479Z" fill="white"/>
<path d="M33.0722 57.0046H27.8423C26.7391 57.0046 25.8447 57.8991 25.8447 59.0023C25.8447 60.1055 26.7391 61 27.8423 61H33.0722C34.1754 61 35.0698 60.1055 35.0698 59.0023C35.0698 57.8991 34.1754 57.0046 33.0722 57.0046Z" fill="white"/>
<path d="M58.0653 27.5653H51.1739C50.0707 27.5653 49.1762 28.4597 49.1762 29.563C49.1762 30.6662 50.0707 31.5606 51.1739 31.5606H58.0653C59.1685 31.5606 60.063 30.6662 60.063 29.563C60.063 28.4597 59.1685 27.5653 58.0653 27.5653Z" fill="white"/>
<path d="M11.8245 29.563C11.8245 28.4597 10.9301 27.5653 9.82688 27.5653H2.93469C1.83145 27.5653 0.937031 28.4597 0.937031 29.563C0.937031 30.6662 1.83145 31.5606 2.93469 31.5606H9.82688C10.9301 31.5606 11.8245 30.6662 11.8245 29.563Z" fill="white"/>
<path d="M30.5003 10.8888C31.6035 10.8888 32.4979 9.99442 32.4979 8.89118V1.99766C32.4979 0.894419 31.6035 0 30.5003 0C29.397 0 28.5026 0.894419 28.5026 1.99766V8.89118C28.5026 9.99442 29.397 10.8888 30.5003 10.8888Z" fill="white"/>
<path d="M46.5303 42.7684C45.7501 41.9882 44.4855 41.9879 43.7051 42.7681C42.9249 43.5482 42.9246 44.8129 43.7048 45.5933L48.578 50.4679C48.9682 50.8581 49.4794 51.053 49.9908 51.053C50.5019 51.053 51.013 50.8581 51.4032 50.4681C52.1834 49.688 52.1837 48.4233 51.4035 47.6429L46.5303 42.7684Z" fill="white"/>
<path d="M14.4676 16.3563C14.8578 16.7465 15.3689 16.9417 15.8803 16.9417C16.3915 16.9417 16.9026 16.7467 17.2925 16.3568C18.073 15.5766 18.073 14.312 17.2931 13.5318L12.4217 8.65862C11.6416 7.8782 10.3769 7.8782 9.59675 8.65809C8.81633 9.43824 8.81633 10.7029 9.59622 11.483L14.4676 16.3563Z" fill="white"/>
<path d="M14.4697 42.7683L9.59622 47.6429C8.81606 48.423 8.81633 49.6879 9.59648 50.4678C9.98643 50.8578 10.4978 51.0527 11.009 51.0527C11.5201 51.0527 12.0315 50.8578 12.4217 50.4676L17.2952 45.593C18.0753 44.8128 18.0751 43.5479 17.2949 42.768C16.5148 41.9882 15.2499 41.9882 14.4697 42.7683Z" fill="white"/>
<path d="M45.1186 16.9415C45.6297 16.9415 46.1411 16.7465 46.5313 16.3563L51.4035 11.4833C52.1837 10.7032 52.1834 9.43827 51.4032 8.65838C50.6231 7.87823 49.3582 7.87823 48.5783 8.65865L43.7061 13.5316C42.926 14.3118 42.9262 15.5767 43.7064 16.3566C44.0961 16.7468 44.6072 16.9415 45.1186 16.9415Z" fill="white"/>
</svg>
