<svg width="57" height="57" viewBox="0 0 57 57" fill="none" xmlns="http://www.w3.org/2000/svg">
<path d="M26.0125 39.8006C26.3282 40.1159 26.7562 40.2934 27.2028 40.2934C27.649 40.2934 28.0769 40.1164 28.3926 39.8006L34.4013 33.792C35.0588 33.1344 35.0588 32.069 34.4013 31.4115C33.7442 30.7544 32.6783 30.7544 32.0212 31.4115L27.2028 36.2299L25.0058 34.0329C24.3482 33.3758 23.2828 33.3758 22.6253 34.0329C21.9682 34.69 21.9682 35.7559 22.6253 36.4134L26.0125 39.8006Z" fill="white"/>
<path d="M28.5135 48.967C35.8807 48.967 41.8741 42.9731 41.8741 35.6059C41.8741 28.2386 35.8807 22.2452 28.5135 22.2452C21.1458 22.2452 15.1523 28.2386 15.1523 35.6059C15.1523 42.9731 21.1462 48.967 28.5135 48.967ZM28.5135 25.6111C34.0246 25.6111 38.5082 30.0947 38.5082 35.6059C38.5082 41.117 34.0246 45.601 28.5135 45.601C23.0023 45.601 18.5183 41.117 18.5183 35.6059C18.5183 30.0947 23.0023 25.6111 28.5135 25.6111Z" fill="white"/>
<path d="M50.9152 3.58381H47.8454V1.68297C47.8454 0.753639 47.0918 0 46.1625 0C45.2331 0 44.4795 0.753639 44.4795 1.68297V3.58381H41.1723V1.68297C41.1723 0.753639 40.4186 0 39.4889 0C38.5595 0 37.8059 0.753639 37.8059 1.68297V3.58381H19.2211V1.68297C19.2211 0.753639 18.4674 0 17.5377 0C16.6083 0 15.8547 0.753639 15.8547 1.68297V3.58381H12.5475V1.68297C12.5475 0.753639 11.7938 0 10.8641 0C9.93473 0 9.18109 0.753639 9.18109 1.68297V3.58381H6.11087C3.10979 3.58381 0.667969 6.02563 0.667969 9.02715V51.5571C0.667969 54.5582 3.10979 57 6.11087 57H50.9152C53.9167 57 56.3581 54.5582 56.3581 51.5571V9.02715C56.3581 6.02563 53.9163 3.58381 50.9152 3.58381ZM52.9918 51.5571C52.9918 52.7021 52.0602 53.6341 50.9152 53.6341H6.11087C4.96584 53.6341 4.03391 52.7021 4.03391 51.5571V17.5785H52.9918V51.5571ZM4.03391 9.02715C4.03391 7.88168 4.96584 6.95018 6.11087 6.95018H9.18109V8.85102C9.18109 9.78035 9.93473 10.534 10.8645 10.534C11.7938 10.534 12.5475 9.78035 12.5475 8.85102V6.95018H15.8547V8.85102C15.8547 9.78035 16.6083 10.534 17.5381 10.534C18.4674 10.534 19.2211 9.78035 19.2211 8.85102V6.95018H37.8059V8.85102C37.8059 9.78035 38.5595 10.534 39.4893 10.534C40.4186 10.534 41.1723 9.78035 41.1723 8.85102V6.95018H44.4795V8.85102C44.4795 9.78035 45.2331 10.534 46.1625 10.534C47.0922 10.534 47.8459 9.78035 47.8459 8.85102V6.95018H50.9152C52.0602 6.95018 52.9922 7.88168 52.9922 9.02715V14.2122H4.03391V9.02715Z" fill="white"/>
</svg>
