<svg width="53" height="50" viewBox="0 0 53 50" fill="none" xmlns="http://www.w3.org/2000/svg">
<g clip-path="url(#clip0)">
<path d="M2.9586 0.952415C0.0469619 2.71432 0 3.00004 0 20.9524C0 38.5715 0.0469619 38.8572 2.62986 40.9048C3.66302 41.7619 4.5553 41.9048 7.79567 41.9048H11.7405V45.4286C11.7405 49.1429 12.351 50.381 13.9007 49.8096C14.3234 49.6191 17.4228 47.8096 20.7571 45.7143L26.7683 41.9048H37.5225C53.1139 41.9048 52.1277 43.3334 52.1277 20.9524C52.1277 3.00004 52.0807 2.71432 49.1691 0.952415C47.7132 0.0476532 46.6801 3.43323e-05 26.0638 3.43323e-05C5.44758 3.43323e-05 4.41441 0.0476532 2.9586 0.952415ZM47.995 4.14289C48.7934 4.85718 48.8403 6.00004 48.8403 21C48.8403 35 48.7464 37.1905 48.0889 37.8096C47.4784 38.4762 45.7408 38.5715 36.6302 38.5715H25.876L20.5693 41.9048L15.2626 45.1905L15.1217 42.4762C15.0278 41 14.746 39.5238 14.4643 39.1905C14.1355 38.7619 12.5858 38.5715 9.48629 38.5715C2.77075 38.5715 3.28733 40.0953 3.28733 21.0477C3.28733 6.85718 3.38125 5.00004 4.08568 4.19051C4.79011 3.38099 6.10504 3.33337 25.9699 3.33337C44.9895 3.33337 47.1967 3.42861 47.995 4.14289Z" fill="white"/>
<path d="M18.5499 12.4762C18.409 13.0953 18.3621 17.3334 18.409 21.9048C18.5499 30.1429 18.5499 30.2381 19.6301 30.381C20.5693 30.5238 30.1025 25.4286 33.9534 22.7143C36.3485 21.0476 35.644 20.2381 27.8014 15.6191C23.8566 13.3334 20.1936 11.4286 19.724 11.4286C19.1604 11.4286 18.6908 11.8572 18.5499 12.4762ZM26.1108 18.4286C28.271 19.7143 30.0556 20.8095 30.0556 20.9524C30.0556 21.2857 22.5417 25.7143 22.0251 25.7143C21.7903 25.7143 21.6024 23.5714 21.6024 20.9524C21.6024 18.3334 21.7433 16.1905 21.8842 16.1905C22.0721 16.1905 23.9505 17.1905 26.1108 18.4286Z" fill="white"/>
</g>
<defs>
<clipPath id="clip0">
<rect width="52.1277" height="50" fill="white"/>
</clipPath>
</defs>
</svg>
