<svg width="80" height="80" viewBox="0 0 80 80" fill="none" xmlns="http://www.w3.org/2000/svg">
<path d="M75 0H5C2.23858 0 0 2.23858 0 5V75C0 77.7614 2.23858 80 5 80H75C77.7614 80 80 77.7614 80 75V5C80 2.23858 77.7614 0 75 0Z" fill="#E62117"/>
<path fill-rule="evenodd" clip-rule="evenodd" d="M46.5116 52.093H33.4883C31.4334 52.0074 29.4962 51.1106 28.1012 49.5992C26.7063 48.0878 25.9674 46.085 26.0465 44.0297V35.9684C25.9684 33.9136 26.7077 31.9116 28.1025 30.4007C29.4973 28.8898 31.4339 27.9931 33.4883 27.907H46.5116C48.5664 27.9931 50.5033 28.8901 51.8981 30.4014C53.293 31.9127 54.032 33.9152 53.9534 35.9703V44.0316C54.032 46.0865 53.2929 48.0888 51.898 49.5998C50.5031 51.1109 48.5662 52.0074 46.5116 52.093ZM50.2325 35.8233C50.2895 34.7768 49.9302 33.7503 49.2331 32.9678C48.536 32.1853 47.5576 31.7103 46.5116 31.6465H33.4883C32.4423 31.7103 31.4639 32.1853 30.7668 32.9678C30.0697 33.7503 29.7104 34.7768 29.7674 35.8233V44.1749C29.7104 45.2213 30.0697 46.2478 30.7668 47.0303C31.4639 47.8129 32.4423 48.2879 33.4883 48.3517H46.5116C47.5576 48.2879 48.536 47.8129 49.2331 47.0303C49.9302 46.2478 50.2895 45.2213 50.2325 44.1749V35.8233ZM37.2093 35.3247L44.6511 40L37.2093 44.6716V35.3247Z" fill="white"/>
</svg>
