<svg width="67" height="77" viewBox="0 0 67 77" fill="none" xmlns="http://www.w3.org/2000/svg">
<rect x="12" y="9" width="53" height="43" rx="3" stroke="white" stroke-width="3"/>
<rect x="12" y="9" width="53" height="43" rx="3" stroke="white" stroke-width="3"/>
<line x1="13" y1="19.5" x2="65" y2="19.5" stroke="white" stroke-width="3"/>
<circle cx="48.5" cy="14.5" r="1.5" fill="white"/>
<circle cx="53.5" cy="14.5" r="1.5" fill="white"/>
<circle cx="58.5" cy="14.5" r="1.5" fill="white"/>
<mask id="path-7-inside-1" fill="white">
<path d="M63 53C63 46.6348 60.4714 40.5303 55.9706 36.0294C51.4697 31.5286 45.3652 29 39 29C32.6348 29 26.5303 31.5286 22.0294 36.0294C17.5286 40.5303 15 46.6348 15 53L39 53H63Z"/>
</mask>
<path d="M63 53C63 46.6348 60.4714 40.5303 55.9706 36.0294C51.4697 31.5286 45.3652 29 39 29C32.6348 29 26.5303 31.5286 22.0294 36.0294C17.5286 40.5303 15 46.6348 15 53L39 53H63Z" stroke="white" stroke-width="6" mask="url(#path-7-inside-1)"/>
<path d="M39 32L39 52" stroke="white" stroke-width="3" stroke-linecap="round" stroke-linejoin="round"/>
<path fill-rule="evenodd" clip-rule="evenodd" d="M57.0341 37.1641C51.7313 40.2393 45.5713 41.9999 39 41.9999C32.4288 41.9999 26.2688 40.2393 20.966 37.1641C20.2972 37.9256 19.6802 38.7255 19.1173 39.5581C24.9393 43.015 31.7379 44.9999 39 44.9999C46.2622 44.9999 53.0607 43.015 58.8827 39.5581C58.3198 38.7255 57.7028 37.9256 57.0341 37.1641Z" fill="white"/>
<mask id="path-10-inside-2" fill="white">
<path fill-rule="evenodd" clip-rule="evenodd" d="M27.0375 53C27.0126 52.5031 27 52.003 27 51.5C27 42.5145 31.0174 34.4672 37.354 29.0565C37.9001 29.0189 38.4491 29 39 29C45.3652 29 51.4697 31.5286 55.9706 36.0294C60.4714 40.5303 63 46.6348 63 53H39L27.0375 53Z"/>
</mask>
<path d="M27.0375 53L24.0412 53.1501L24.184 56H27.0375L27.0375 53ZM37.354 29.0565L37.1483 26.0635L36.1596 26.1315L35.4059 26.775L37.354 29.0565ZM55.9706 36.0294L58.0919 33.9081L55.9706 36.0294ZM63 53V56H66V53H63ZM39 53L39 56H39V53ZM30.0337 52.8499C30.0113 52.403 30 51.953 30 51.5H24C24 52.0531 24.0138 52.6032 24.0412 53.1501L30.0337 52.8499ZM30 51.5C30 43.429 33.6045 36.203 39.3021 31.3379L35.4059 26.775C28.4303 32.7314 24 41.5999 24 51.5H30ZM39 26C38.3803 26 37.7627 26.0213 37.1483 26.0635L37.5596 32.0494C38.0375 32.0166 38.5178 32 39 32V26ZM58.0919 33.9081C53.0284 28.8446 46.1608 26 39 26V32C44.5695 32 49.911 34.2125 53.8492 38.1508L58.0919 33.9081ZM66 53C66 45.8392 63.1554 38.9716 58.0919 33.9081L53.8492 38.1508C57.7875 42.089 60 47.4305 60 53H66ZM39 56H63V50H39V56ZM27.0375 56L39 56L39 50L27.0375 50L27.0375 56Z" fill="white" mask="url(#path-10-inside-2)"/>
<mask id="path-12-inside-3" fill="white">
<path fill-rule="evenodd" clip-rule="evenodd" d="M50.9625 53.3335C50.9874 52.8366 51 52.3365 51 51.8335C51 42.848 46.9826 34.8007 40.6461 29.39C40.0999 29.3524 39.5509 29.3335 39 29.3335C32.6348 29.3335 26.5303 31.8621 22.0295 36.3629C17.5286 40.8638 15 46.9683 15 53.3335H39L50.9625 53.3335Z"/>
</mask>
<path d="M50.9625 53.3335L53.9588 53.4836L53.816 56.3335H50.9625L50.9625 53.3335ZM40.6461 29.39L40.8517 26.397L41.8405 26.465L42.5942 27.1085L40.6461 29.39ZM22.0295 36.3629L19.9081 34.2416L22.0295 36.3629ZM15 53.3335V56.3335H12V53.3335H15ZM39 53.3335L39 56.3335H39V53.3335ZM47.9663 53.1834C47.9887 52.7365 48 52.2865 48 51.8335H54C54 52.3866 53.9862 52.9367 53.9588 53.4836L47.9663 53.1834ZM48 51.8335C48 43.7625 44.3955 36.5365 38.698 31.6714L42.5942 27.1085C49.5697 33.0649 54 41.9334 54 51.8335H48ZM39 26.3335C39.6197 26.3335 40.2373 26.3548 40.8517 26.397L40.4404 32.3829C39.9626 32.3501 39.4822 32.3335 39 32.3335V26.3335ZM19.9081 34.2416C24.9716 29.1781 31.8392 26.3335 39 26.3335V32.3335C33.4305 32.3335 28.089 34.546 24.1508 38.4843L19.9081 34.2416ZM12 53.3335C12 46.1726 14.8447 39.3051 19.9081 34.2416L24.1508 38.4843C20.2125 42.4225 18 47.764 18 53.3335H12ZM39 56.3335H15V50.3335H39V56.3335ZM50.9625 56.3335L39 56.3335L39 50.3335L50.9625 50.3335L50.9625 56.3335Z" fill="white" mask="url(#path-12-inside-3)"/>
<path d="M13.4049 2.29273C13.4348 2.2006 13.5652 2.2006 13.5951 2.29273L16.284 10.5682C16.2974 10.6094 16.3358 10.6373 16.3791 10.6373H25.0804C25.1773 10.6373 25.2176 10.7613 25.1392 10.8182L18.0997 15.9327C18.0646 15.9582 18.05 16.0033 18.0633 16.0445L20.7522 24.32C20.7821 24.4122 20.6767 24.4888 20.5983 24.4318L13.5588 19.3173C13.5237 19.2918 13.4763 19.2918 13.4412 19.3173L6.40167 24.4318C6.3233 24.4888 6.21785 24.4122 6.24779 24.32L8.93665 16.0445C8.95004 16.0033 8.93538 15.9582 8.90033 15.9327L1.86078 10.8182C1.78241 10.7613 1.82269 10.6373 1.91956 10.6373H10.6209C10.6642 10.6373 10.7026 10.6094 10.716 10.5682L13.4049 2.29273Z" fill="#FF7C1D" stroke="white" stroke-width="3"/>
</svg>
