<svg xmlns="http://www.w3.org/2000/svg" style="display:none"><defs><clipPath id="a"><path fill="#fff" d="M0 0h61v61H0z"/></clipPath><clipPath id="a"><path fill="#fff" d="M0 0h53v53H0z"/></clipPath><clipPath id="a"><path fill="#fff" d="M0 0h52.128v50H0z"/></clipPath></defs><symbol id="fa" viewBox="0 0 80 80"><path d="M75 0H5a5 5 0 0 0-5 5v70a5 5 0 0 0 5 5h70a5 5 0 0 0 5-5V5a5 5 0 0 0-5-5z" fill="#3B5998"/><path fill-rule="evenodd" clip-rule="evenodd" d="M44.629 31.59l.58-3.683a29.593 29.593 0 0 0-4.465.033A4.188 4.188 0 0 0 38.09 29.4a4.571 4.571 0 0 0-.887 2.977v4.822l-3.721-.028v3.734l3.72.013V52.08l3.746-.01V40.909h4.417l.577-3.734h-4.994v-4.668a1.045 1.045 0 0 1 1.248-.906c.823-.011 2.434-.01 2.434-.01z" fill="#fff"/><path d="M48.372 26.047H31.628a5.581 5.581 0 0 0-5.581 5.581v16.744a5.581 5.581 0 0 0 5.58 5.582h16.745a5.581 5.581 0 0 0 5.581-5.582V31.628a5.581 5.581 0 0 0-5.58-5.581z" fill="#fff"/><path fill-rule="evenodd" clip-rule="evenodd" d="M46.49 35.312l.58-3.684a29.606 29.606 0 0 0-4.465.033 4.188 4.188 0 0 0-2.655 1.459 4.572 4.572 0 0 0-.888 2.977v4.822l-3.72-.028v3.734l3.72.013v11.163l3.745-.01V44.63h4.417l.577-3.734h-4.994v-4.668a1.045 1.045 0 0 1 1.249-.906c.822-.011 2.433-.01 2.433-.01z" fill="#3B5998"/></symbol><symbol id="seo-icon" viewBox="0 0 21 21"><path d="M20.389 3.733h-5.582v-.616a1.848 1.848 0 0 0-1.846-1.846H8.039a1.848 1.848 0 0 0-1.846 1.846v.615H.615A.617.617 0 0 0 0 4.348v13.535c0 1.018.828 1.846 1.846 1.846h17.308A1.848 1.848 0 0 0 21 17.883V4.36v-.003c-.024-.404-.272-.623-.611-.625zM7.424 3.117c0-.339.276-.615.615-.615h4.922c.34 0 .615.276.615.615v.615H7.424v-.615zM19.53 4.963l-1.91 5.731a.614.614 0 0 1-.584.421h-3.46V10.5a.615.615 0 0 0-.616-.615H8.039a.615.615 0 0 0-.615.615v.615H3.963a.614.614 0 0 1-.584-.42L1.47 4.962H19.53zm-7.185 6.152v1.23H8.654v-1.23h3.692zm7.424 6.768c0 .339-.276.615-.616.615H1.846a.616.616 0 0 1-.616-.615V8.139l.982 2.945a1.843 1.843 0 0 0 1.751 1.262h3.46v.615c0 .34.276.615.616.615h4.922c.34 0 .615-.275.615-.615v-.615h3.461c.796 0 1.5-.507 1.75-1.262l.983-2.945v9.744z" fill="#2D2D2D"/></symbol><symbol id="service-icon-01" viewBox="0 0 61 61"><g clip-path="url(#a)" fill="#fff"><path d="M52.456 8.445c-4.71 0-8.544 3.832-8.544 8.543 0 4.711 3.833 8.544 8.544 8.544S61 21.7 61 16.988c0-4.71-3.833-8.543-8.544-8.543zm0 13.511a4.973 4.973 0 0 1-4.968-4.968 4.973 4.973 0 0 1 4.968-4.967 4.973 4.973 0 0 1 4.968 4.967 4.973 4.973 0 0 1-4.968 4.968zM2.212 19.942c.35.349.807.523 1.265.523.457 0 .915-.174 1.264-.523l4.647-4.648 4.647 4.648c.35.349.807.523 1.265.523a1.788 1.788 0 0 0 1.264-3.052l-4.647-4.647 4.647-4.647a1.788 1.788 0 0 0-2.529-2.529l-4.647 4.647L4.741 5.59A1.789 1.789 0 0 0 2.212 8.12l4.648 4.647-4.648 4.647a1.788 1.788 0 0 0 0 2.529zM40.21 41.058a1.789 1.789 0 0 0-2.53 0l-4.647 4.647-4.647-4.647a1.789 1.789 0 0 0-2.528 2.53l4.647 4.646-4.647 4.647a1.789 1.789 0 0 0 2.528 2.529l4.647-4.647 4.647 4.647c.35.349.807.523 1.265.523a1.789 1.789 0 0 0 1.264-3.052l-4.647-4.647 4.647-4.647a1.788 1.788 0 0 0 0-2.529zM40.348 15.986l-7.21-6.267a1.788 1.788 0 0 0-2.346 2.698l3.824 3.325c-11.287 1.476-17.97 7.374-21.684 12.359-3.254 4.366-4.776 8.667-5.386 10.805C3.303 39.402 0 43.016 0 47.389c0 4.711 3.833 8.544 8.544 8.544 4.71 0 8.544-3.832 8.544-8.544 0-3.792-2.485-7.013-5.91-8.126.643-2.033 2.036-5.593 4.707-9.14 4.65-6.177 11.11-9.814 19.236-10.848l-3.563 4.099a1.788 1.788 0 0 0 2.699 2.346l6.268-7.211a1.788 1.788 0 0 0-.177-2.523zM13.512 47.39a4.973 4.973 0 0 1-4.968 4.968 4.973 4.973 0 0 1-4.968-4.968 4.973 4.973 0 0 1 4.968-4.967 4.973 4.973 0 0 1 4.968 4.967z"/></g></symbol><symbol id="service-icon-02" viewBox="0 0 61 61"><path d="M30.5 13.782c-8.7 0-15.78 7.08-15.78 15.781 0 3.561 1.167 6.926 3.375 9.73.436.554.894 1.085 1.378 1.647l.027.031c1.483 1.72 3.017 3.5 3.59 5.596.129.48.147 1.401.14 2.11v1.206c0 1.103.894 1.998 1.997 1.998h10.46a1.998 1.998 0 0 0 1.998-1.998v-1.22c-.007-.926.041-1.602.138-1.953.576-2.081 2.275-4.08 3.788-5.86l.066-.076c.436-.513.849-.998 1.224-1.476a15.582 15.582 0 0 0 3.38-9.735c0-8.702-7.08-15.781-15.78-15.781zm9.262 23.045c-.33.419-.717.874-1.128 1.357l-.08.094c-1.768 2.079-3.77 4.435-4.582 7.37-.115.416-.243 1.04-.275 2.237H27.22c-.027-1.272-.157-1.924-.276-2.364-.812-2.974-2.812-5.294-4.419-7.159l-.026-.03a44.327 44.327 0 0 1-1.265-1.51 11.627 11.627 0 0 1-2.52-7.259c0-6.499 5.287-11.786 11.786-11.786 6.497 0 11.784 5.287 11.784 11.786 0 2.658-.872 5.17-2.523 7.264zM35.687 52.448h-10.46a1.998 1.998 0 0 0 0 3.995h10.46a1.998 1.998 0 1 0 0-3.995zM33.072 57.005h-5.23a1.998 1.998 0 0 0 0 3.995h5.23a1.998 1.998 0 0 0 0-3.995zM58.065 27.565h-6.891a1.998 1.998 0 0 0 0 3.996h6.891a1.998 1.998 0 0 0 0-3.996zM11.825 29.563a1.998 1.998 0 0 0-1.998-1.998H2.935a1.998 1.998 0 0 0 0 3.996h6.892a1.998 1.998 0 0 0 1.998-1.998zM30.5 10.889a1.998 1.998 0 0 0 1.998-1.998V1.998a1.998 1.998 0 0 0-3.995 0V8.89c0 1.103.894 1.998 1.997 1.998zM46.53 42.768a1.998 1.998 0 1 0-2.825 2.825l4.873 4.875c.39.39.901.585 1.413.585a1.998 1.998 0 0 0 1.413-3.41l-4.874-4.875zM14.468 16.356c.39.39.9.586 1.412.586a1.997 1.997 0 0 0 1.413-3.41l-4.871-4.873a1.997 1.997 0 1 0-2.826 2.824l4.872 4.873zM14.47 42.768l-4.874 4.875a1.997 1.997 0 1 0 2.826 2.825l4.873-4.875a1.997 1.997 0 1 0-2.825-2.825zM45.119 16.942c.51 0 1.022-.195 1.412-.586l4.873-4.873a1.997 1.997 0 1 0-2.826-2.824l-4.872 4.873a1.997 1.997 0 0 0 1.413 3.41z" fill="#fff"/></symbol><symbol id="service-icon-03" viewBox="0 0 53 53"><g clip-path="url(#a)" fill="#fff" stroke="#fff" stroke-width=".5"><path d="M8.136.563c-1.627.891-2.092 1.876-2.092 4.456v2.485h2.79c2.65 0 2.789.047 2.789 1.173V9.85h-5.3c-3.905 0-5.44.187-5.812.656C.14 10.928 0 16.041.093 28.423l.14 17.307 9.902.14 9.856.095v4.69h-2.743c-1.766 0-2.79.188-2.929.563C13.67 52.906 14.226 53 26.5 53c12.227 0 12.785-.094 12.227-1.782-.14-.376-1.162-.563-2.975-.563h-2.743v-4.69l9.902-.094 9.856-.14.14-17.308c.093-12.382-.046-17.495-.418-17.917-.372-.469-1.906-.656-5.765-.656H41.47l-.186-3.8c-.14-3.47-.279-3.892-1.441-4.924L38.541 0H23.804C14.04.047 8.74.188 8.136.563zm2.743 2.064c.418.14.744.797.744 1.407 0 .985-.233 1.125-1.627 1.125-1.256 0-1.628-.187-1.628-.844 0-.844.837-1.97 1.442-1.97.186 0 .65.14 1.069.282zm27.244.187c.604.375.697 2.814.837 16.416l.14 15.947H13.946V2.345H25.71c6.555 0 12.04.188 12.413.47zm-26.5 20.872v11.491H9.81c-1.814 0-3.162.938-2.604 1.876.419.657 38.17.657 38.588 0 .558-.938-.79-1.876-2.604-1.876h-1.813V12.148l4.556.14 4.51.141.14 15.572.092 15.619H2.325V28.235c0-8.489.139-15.571.325-15.712.14-.188 2.232-.328 4.65-.328h4.323v11.49zM30.684 48.31v2.345h-8.368v-4.69h8.368v2.345z"/><path d="M23.571 7.364c-.186.14-.325 2.251-.325 4.69 0 3.846.093 4.362.837 4.362 1.348-.047 8.228-3.94 8.228-4.69 0-.422-1.58-1.548-3.719-2.674-3.812-2.017-4.51-2.251-5.02-1.688zm4.277 4.174c.233.235-1.395 1.548-1.906 1.595-.232 0-.372-.657-.372-1.407 0-1.36.093-1.407 1.07-.892.557.282 1.115.61 1.208.704zM21.711 21.388c-.185.187-.325.75-.325 1.219 0 .797.558.844 7.485.844h7.439l-.14-1.079c-.14-1.031-.279-1.031-7.16-1.172-3.812-.047-7.113.047-7.299.188zM17.062 26.078c-.186.188-.325.75-.325 1.22 0 .797.604.844 9.81.844h9.763l-.14-1.08c-.14-1.031-.186-1.031-9.484-1.172-5.114-.047-9.438.047-9.624.188zM17.062 30.768c-.186.188-.325.75-.325 1.22 0 .797.558.844 7.485.844h7.438l-.139-1.079c-.14-1.032-.279-1.032-7.16-1.172-3.812-.047-7.113.046-7.299.187z"/></g></symbol><symbol id="service-icon-04" viewBox="0 0 57 57"><path d="M26.012 39.8a1.684 1.684 0 0 0 2.38 0l6.01-6.008a1.683 1.683 0 1 0-2.38-2.38l-4.82 4.818-2.196-2.197a1.684 1.684 0 0 0-2.38 2.38l3.386 3.388z" fill="#fff"/><path d="M28.514 48.967c7.367 0 13.36-5.994 13.36-13.361 0-7.367-5.993-13.36-13.36-13.36-7.368 0-13.362 5.993-13.362 13.36 0 7.367 5.994 13.361 13.362 13.361zm0-23.356c5.51 0 9.994 4.484 9.994 9.995 0 5.511-4.483 9.995-9.995 9.995-5.51 0-9.995-4.484-9.995-9.995 0-5.511 4.484-9.995 9.995-9.995z" fill="#fff"/><path d="M50.915 3.584h-3.07V1.683a1.683 1.683 0 0 0-3.365 0v1.9h-3.308v-1.9a1.683 1.683 0 0 0-3.366 0v1.9H19.22v-1.9a1.683 1.683 0 0 0-3.366 0v1.9h-3.308v-1.9a1.683 1.683 0 0 0-3.366 0v1.9h-3.07A5.45 5.45 0 0 0 .668 9.028v42.53A5.45 5.45 0 0 0 6.111 57h44.804a5.449 5.449 0 0 0 5.443-5.443V9.027a5.45 5.45 0 0 0-5.443-5.443zm2.077 47.973a2.08 2.08 0 0 1-2.077 2.077H6.111a2.08 2.08 0 0 1-2.077-2.077V17.578h48.958v33.98zM4.034 9.027A2.08 2.08 0 0 1 6.11 6.95h3.07v1.901a1.683 1.683 0 0 0 3.367 0v-1.9h3.307v1.9a1.683 1.683 0 0 0 3.366 0v-1.9h18.585v1.9a1.683 1.683 0 0 0 3.366 0v-1.9h3.308v1.9a1.683 1.683 0 0 0 3.366 0v-1.9h3.07a2.08 2.08 0 0 1 2.076 2.076v5.185H4.034V9.027z" fill="#fff"/></symbol><symbol id="service-icon-05" viewBox="0 0 53 50"><g clip-path="url(#a)" fill="#fff"><path d="M2.959.952C.047 2.714 0 3 0 20.952c0 17.62.047 17.905 2.63 19.953 1.033.857 1.925 1 5.166 1h3.945v3.524c0 3.714.61 4.952 2.16 4.38.422-.19 3.522-2 6.856-4.095l6.011-3.81h10.755c15.59 0 14.605 1.43 14.605-20.952 0-17.952-.047-18.238-2.959-20C47.713.048 46.68 0 26.064 0S4.414.048 2.959.952zm45.036 3.19c.798.715.845 1.858.845 16.858 0 14-.094 16.19-.751 16.81-.61.666-2.348.761-11.459.761H25.876l-5.307 3.334-5.306 3.285-.141-2.714c-.094-1.476-.376-2.952-.658-3.285-.329-.43-1.878-.62-4.978-.62-6.715 0-6.199 1.524-6.199-17.523 0-14.19.094-16.048.799-16.857.704-.81 2.019-.858 21.884-.858 19.02 0 21.227.096 22.025.81z"/><path d="M18.55 12.476c-.141.62-.188 4.857-.141 9.429.14 8.238.14 8.333 1.221 8.476.94.143 10.473-4.952 14.323-7.667 2.395-1.666 1.691-2.476-6.152-7.095-3.944-2.286-7.607-4.19-8.077-4.19-.564 0-1.033.428-1.174 1.047zm7.56 5.953c2.161 1.285 3.946 2.38 3.946 2.523 0 .334-7.514 4.762-8.03 4.762-.236 0-.424-2.143-.424-4.762 0-2.619.141-4.762.282-4.762.188 0 2.067 1 4.227 2.239z"/></g></symbol><symbol id="service-icon-06" viewBox="0 0 55 55"><path d="M53.389 3.33H1.61C.721 3.33 0 4.052 0 4.941v35.45c0 .89.721 1.611 1.611 1.611h17.832v6.445h-1.611a1.611 1.611 0 1 0 0 3.223h19.336a1.611 1.611 0 0 0 0-3.223h-1.611v-6.445h17.832c.89 0 1.611-.721 1.611-1.611V4.94c0-.89-.721-1.61-1.611-1.61zM32.334 48.447h-9.668v-6.445h9.668v6.445zm19.443-9.668H3.223V6.553h48.554v32.226z" fill="#fff"/><path d="M18.262 34.482c6.515 0 11.816-5.3 11.816-11.816 0-6.516-5.3-11.816-11.816-11.816-6.516 0-11.817 5.3-11.817 11.816 0 6.516 5.301 11.816 11.817 11.816zm8.44-13.427h-6.829v-6.829a8.615 8.615 0 0 1 6.829 6.829zM16.65 14.226v8.44c0 .89.722 1.611 1.612 1.611h8.44c-.757 3.971-4.253 6.983-8.44 6.983-4.739 0-8.594-3.855-8.594-8.594 0-4.188 3.012-7.683 6.982-8.44zM38.024 27.565a1.612 1.612 0 0 0 2.279 0l5.035-5.036a1.61 1.61 0 0 0 3.217-.124v-3.76c0-.89-.722-1.61-1.612-1.61h-3.76a1.611 1.611 0 0 0-.123 3.216l-3.897 3.896-3.112-3.112a1.611 1.611 0 1 0-2.278 2.279l4.25 4.251zM34.912 34.482h12.031a1.611 1.611 0 0 0 0-3.222h-12.03a1.611 1.611 0 1 0 0 3.222z" fill="#fff"/></symbol><symbol id="service-icon-07" viewBox="0 0 67 77"><rect x="12" y="9" width="53" height="43" rx="3" stroke="#fff" stroke-width="3"/><rect x="12" y="9" width="53" height="43" rx="3" stroke="#fff" stroke-width="3"/><path stroke="#fff" stroke-width="3" d="M13 19.5h52"/><circle cx="48.5" cy="14.5" r="1.5" fill="#fff"/><circle cx="53.5" cy="14.5" r="1.5" fill="#fff"/><circle cx="58.5" cy="14.5" r="1.5" fill="#fff"/><mask id="a" fill="#fff"><path d="M63 53a24 24 0 0 0-48 0h48z"/></mask><path d="M63 53a24 24 0 0 0-48 0h48z" stroke="#fff" stroke-width="6" mask="url(#a)"/><path d="M39 32v20" stroke="#fff" stroke-width="3" stroke-linecap="round" stroke-linejoin="round"/><path fill-rule="evenodd" clip-rule="evenodd" d="M57.034 37.164A35.835 35.835 0 0 1 39 42a35.835 35.835 0 0 1-18.034-4.836 23.985 23.985 0 0 0-1.849 2.394A38.819 38.819 0 0 0 39 45c7.262 0 14.06-1.985 19.883-5.442a23.999 23.999 0 0 0-1.849-2.394z" fill="#fff"/><mask id="b" fill="#fff"><path fill-rule="evenodd" clip-rule="evenodd" d="M27.038 53A29.97 29.97 0 0 1 27 51.5c0-8.986 4.017-17.033 10.354-22.444A24 24 0 0 1 63 53H27.038z"/></mask><path d="M27.038 53l-2.997.15.143 2.85h2.854v-3zm10.316-23.944l-.206-2.992-.988.067-.754.644 1.948 2.282zm18.617 6.973l2.12-2.12-2.12 2.12zM63 53v3h3v-3h-3zm-24 0v3-3zm-8.966-.15A26.963 26.963 0 0 1 30 51.5h-6c0 .553.014 1.103.041 1.65l5.993-.3zM30 51.5c0-8.071 3.605-15.297 9.302-20.162l-3.896-4.563C28.43 32.731 24 41.6 24 51.5h6zM39 26c-.62 0-1.237.021-1.852.064l.412 5.985c.477-.032.958-.049 1.44-.049v-6zm19.092 7.908A27 27 0 0 0 39 26v6a21 21 0 0 1 14.85 6.15l4.242-4.242zM66 53a27 27 0 0 0-7.908-19.092l-4.243 4.243A21 21 0 0 1 60 53h6zm-27 3h24v-6H39v6zm-11.962 0H39v-6H27.038v6z" fill="#fff" mask="url(#b)"/><mask id="c" fill="#fff"><path fill-rule="evenodd" clip-rule="evenodd" d="M50.962 53.334c.025-.497.038-.998.038-1.5 0-8.986-4.017-17.033-10.354-22.444A24 24 0 0 0 15 53.334h35.962z"/></mask><path d="M50.962 53.334l2.997.15-.143 2.85h-2.854v-3zM40.646 29.39l.206-2.993.989.068.753.643-1.948 2.282zM22.03 36.363l-2.12-2.121 2.12 2.12zM15 53.333v3h-3v-3h3zm24 0v3-3zm8.966-.15c.023-.447.034-.897.034-1.35h6c0 .554-.014 1.104-.041 1.65l-5.993-.3zm.034-1.35c0-8.07-3.605-15.297-9.302-20.162l3.896-4.563C49.57 33.066 54 41.933 54 51.834h-6zm-9-25.5c.62 0 1.237.022 1.852.064l-.412 5.986c-.477-.033-.958-.05-1.44-.05v-6zm-19.092 7.909A27 27 0 0 1 39 26.334v6a21 21 0 0 0-14.85 6.15l-4.242-4.242zM12 53.334a27 27 0 0 1 7.908-19.092l4.243 4.242A21 21 0 0 0 18 53.334h-6zm27 3H15v-6h24v6zm11.962 0H39v-6h11.962v6z" fill="#fff" mask="url(#c)"/><path d="M13.405 2.293a.1.1 0 0 1 .19 0l2.689 8.275a.1.1 0 0 0 .095.07h8.701a.1.1 0 0 1 .06.18l-7.04 5.115a.1.1 0 0 0-.037.111l2.69 8.276a.1.1 0 0 1-.155.112l-7.04-5.115a.1.1 0 0 0-.117 0l-7.04 5.115a.1.1 0 0 1-.153-.112l2.689-8.276a.1.1 0 0 0-.037-.111l-7.04-5.115a.1.1 0 0 1 .06-.18h8.7a.1.1 0 0 0 .096-.07l2.689-8.275z" fill="#FF7C1D" stroke="#fff" stroke-width="3"/></symbol><symbol id="temp-icon-left-arrow" viewBox="0 0 31.494 31.494"><path d="M10.273 5.01a1.117 1.117 0 0 1 1.587 1.57l-8.047 8.047h26.554c.62 0 1.127.492 1.127 1.11 0 .62-.508 1.128-1.127 1.128H3.813l8.047 8.032c.43.444.43 1.16 0 1.587a1.112 1.112 0 0 1-1.587 0L.32 16.532a1.12 1.12 0 0 1 0-1.57l9.953-9.953z" fill="#1E201D"/></symbol><symbol id="temp-icon-right-arrow" viewBox="0 0 31.49 31.49"><path d="M21.205 5.007a1.117 1.117 0 0 0-1.587 1.57l8.047 8.048H1.11c-.618 0-1.11.493-1.11 1.112 0 .62.492 1.127 1.11 1.127h26.555l-8.047 8.032c-.43.444-.43 1.16 0 1.587.444.444 1.16.444 1.587 0l9.952-9.952a1.092 1.092 0 0 0 0-1.57l-9.952-9.95z" fill="#1E201D"/></symbol><symbol id="youtube" viewBox="0 0 80 80"><path d="M75 0H5a5 5 0 0 0-5 5v70a5 5 0 0 0 5 5h70a5 5 0 0 0 5-5V5a5 5 0 0 0-5-5z" fill="#E62117"/><path fill-rule="evenodd" clip-rule="evenodd" d="M46.512 52.093H33.488a7.771 7.771 0 0 1-7.441-8.063v-8.062a7.773 7.773 0 0 1 7.441-8.061h13.024a7.773 7.773 0 0 1 7.441 8.063v8.062a7.771 7.771 0 0 1-7.441 8.061zm3.72-16.27a3.968 3.968 0 0 0-3.72-4.177H33.488a3.968 3.968 0 0 0-3.72 4.177v8.352a3.968 3.968 0 0 0 3.72 4.177h13.024a3.968 3.968 0 0 0 3.72-4.177v-8.352zm-13.023-.498L44.651 40l-7.442 4.672v-9.347z" fill="#fff"/></symbol></svg>